<?xml version="1.0" encoding="UTF-8" standalone="no"?>
<svg
   xmlns:dc="http://purl.org/dc/elements/1.1/"
   xmlns:cc="http://creativecommons.org/ns#"
   xmlns:rdf="http://www.w3.org/1999/02/22-rdf-syntax-ns#"
   xmlns:svg="http://www.w3.org/2000/svg"
   xmlns="http://www.w3.org/2000/svg"
   xmlns:sodipodi="http://sodipodi.sourceforge.net/DTD/sodipodi-0.dtd"
   xmlns:inkscape="http://www.inkscape.org/namespaces/inkscape"
   id="e4110a9f-f3dd-43c7-a69f-77d1c85ae255"
   data-name="Layer 1"
   width="1137.93"
   height="741.16"
   viewBox="0 0 1137.93 741.16"
   version="1.1"
   sodipodi:docname="data_s_i.svg"
   inkscape:version="0.92.4 (5da689c313, 2019-01-14)">
  <metadata
     id="metadata221">
    <rdf:RDF>
      <cc:Work
         rdf:about="">
        <dc:format>image/svg+xml</dc:format>
        <dc:type
           rdf:resource="http://purl.org/dc/dcmitype/StillImage" />
        <dc:title>financial data</dc:title>
      </cc:Work>
    </rdf:RDF>
  </metadata>
  <defs
     id="defs219" />
  <sodipodi:namedview
     pagecolor="#ffffff"
     bordercolor="#666666"
     borderopacity="1"
     objecttolerance="10"
     gridtolerance="10"
     guidetolerance="10"
     inkscape:pageopacity="0"
     inkscape:pageshadow="2"
     inkscape:window-width="1920"
     inkscape:window-height="1001"
     id="namedview217"
     showgrid="false"
     inkscape:zoom="0.63683957"
     inkscape:cx="620.17008"
     inkscape:cy="435.09652"
     inkscape:window-x="-9"
     inkscape:window-y="-9"
     inkscape:window-maximized="1"
     inkscape:current-layer="e4110a9f-f3dd-43c7-a69f-77d1c85ae255" />
  <title
     id="title2">financial data</title>
  <path
     style="fill:#3f3d56;stroke-width:1.62624896"
     d="M 33.049265,32.136241 C 19.69368,32.199015 8.9164973,43.075917 8.9795144,56.431518 9.1057112,283.4457 9.5099478,445.4098 9.5099478,672.42403 c 0,13.29267 10.7771012,24.06659 24.0697492,24.06659 H 1107.4216 c 13.2926,0 24.0697,-10.77392 24.0697,-24.06659 -0.043,-227.01419 -0.3313,-388.97841 -0.5305,-615.992512 0.063,-13.355601 -10.7109,-24.232553 -24.0664,-24.295277 z"
     id="path16"
     inkscape:connector-curvature="0"
     sodipodi:nodetypes="cccsscccc" />
  <rect
     x="55.410313"
     y="73.003998"
     width="1034.6682"
     height="585.14056"
     id="rect20"
     style="fill:#2f2e41;stroke-width:1.62624896" />
  <rect
     x="101.36811"
     y="298.74359"
     width="34.395164"
     height="10.440516"
     id="rect30"
     style="opacity:0.3;fill:#66cc66;stroke-width:1.62624896" />
  <rect
     x="1019.1417"
     y="299.05258"
     width="34.395164"
     height="10.440516"
     id="rect32"
     style="opacity:0.3;fill:#66cc66;stroke-width:1.62624896" />
  <rect
     x="101.67709"
     y="372.1362"
     width="34.395164"
     height="10.440516"
     id="rect34"
     style="opacity:0.3;fill:#66cc66;stroke-width:1.62624896" />
  <rect
     x="101.98608"
     y="445.52881"
     width="34.395164"
     height="10.440516"
     id="rect36"
     style="opacity:0.3;fill:#66cc66;stroke-width:1.62624896" />
  <rect
     x="102.29506"
     y="518.90515"
     width="34.395164"
     height="10.440516"
     id="rect38"
     style="opacity:0.3;fill:#66cc66;stroke-width:1.62624896" />
  <g
     id="g52"
     transform="matrix(1.6262487,0,0,1.6262487,-354.68082,-226.71364)"
     style="opacity:0.2">
    <rect
       x="301.57999"
       y="326.20001"
       width="6"
       height="0.25"
       id="rect40"
       style="fill:#f2f2f2" />
    <path
       d="m 857.64,405.87 h -11.79 v -0.25 h 11.79 z m -23.59,0 h -11.79 v -0.25 h 11.79 z m -23.59,0 h -11.8 v -0.25 h 11.8 z m -23.59,0 h -11.8 v -0.25 h 11.8 z m -23.59,0 h -11.8 v -0.25 h 11.8 z m -23.6,0 h -11.79 v -0.25 h 11.79 z m -23.59,0 h -11.8 v -0.25 h 11.8 z m -23.59,0 h -11.8 v -0.25 h 11.8 z m -23.59,0 h -11.8 v -0.25 h 11.8 z m -23.6,0 h -11.79 v -0.25 h 11.79 z m -23.59,0 h -11.8 v -0.25 h 11.8 z m -23.59,0 h -11.8 v -0.25 h 11.8 z m -23.59,0 h -11.8 v -0.25 h 11.8 z m -23.6,0 h -11.79 v -0.25 h 11.79 z m -23.59,0 h -11.79 v -0.25 h 11.79 z m -23.59,0 H 492 v -0.25 h 11.8 z m -23.59,0 h -11.8 v -0.25 h 11.8 z m -23.6,0 h -11.79 v -0.25 h 11.79 z m -23.59,0 h -11.79 v -0.25 H 433 Z m -23.59,0 h -11.8 v -0.25 h 11.8 z m -23.59,0 H 374 v -0.25 h 11.8 z m -23.6,0 h -11.79 v -0.25 h 11.79 z"
       transform="translate(-31.03,-79.42)"
       id="path42"
       inkscape:connector-curvature="0"
       style="fill:#f2f2f2" />
    <rect
       x="838.40997"
       y="326.20001"
       width="6"
       height="0.25"
       id="rect44"
       style="fill:#f2f2f2" />
    <rect
       x="301.57999"
       y="326.20001"
       width="6"
       height="0.25"
       id="rect46"
       style="fill:#f2f2f2" />
    <path
       d="m 857.64,405.87 h -11.79 v -0.25 h 11.79 z m -23.59,0 h -11.79 v -0.25 h 11.79 z m -23.59,0 h -11.8 v -0.25 h 11.8 z m -23.59,0 h -11.8 v -0.25 h 11.8 z m -23.59,0 h -11.8 v -0.25 h 11.8 z m -23.6,0 h -11.79 v -0.25 h 11.79 z m -23.59,0 h -11.8 v -0.25 h 11.8 z m -23.59,0 h -11.8 v -0.25 h 11.8 z m -23.59,0 h -11.8 v -0.25 h 11.8 z m -23.6,0 h -11.79 v -0.25 h 11.79 z m -23.59,0 h -11.8 v -0.25 h 11.8 z m -23.59,0 h -11.8 v -0.25 h 11.8 z m -23.59,0 h -11.8 v -0.25 h 11.8 z m -23.6,0 h -11.79 v -0.25 h 11.79 z m -23.59,0 h -11.79 v -0.25 h 11.79 z m -23.59,0 H 492 v -0.25 h 11.8 z m -23.59,0 h -11.8 v -0.25 h 11.8 z m -23.6,0 h -11.79 v -0.25 h 11.79 z m -23.59,0 h -11.79 v -0.25 H 433 Z m -23.59,0 h -11.8 v -0.25 h 11.8 z m -23.59,0 H 374 v -0.25 h 11.8 z m -23.6,0 h -11.79 v -0.25 h 11.79 z"
       transform="translate(-31.03,-79.42)"
       id="path48"
       inkscape:connector-curvature="0"
       style="fill:#f2f2f2" />
    <rect
       x="838.40997"
       y="326.20001"
       width="6"
       height="0.25"
       id="rect50"
       style="fill:#f2f2f2" />
  </g>
  <rect
     x="101.36811"
     y="225.56238"
     width="34.395164"
     height="10.440516"
     id="rect54"
     style="opacity:0.3;fill:#66cc66;stroke-width:1.62624896" />
  <rect
     x="1019.1417"
     y="225.87138"
     width="34.395164"
     height="10.440516"
     id="rect56"
     style="opacity:0.3;fill:#66cc66;stroke-width:1.62624896" />
  <g
     id="g64"
     transform="matrix(1.6262487,0,0,1.6262487,-354.68082,-226.71364)"
     style="opacity:0.2">
    <rect
       x="301.57999"
       y="281.20001"
       width="6"
       height="0.25"
       id="rect58"
       style="fill:#f2f2f2" />
    <path
       d="m 857.64,360.87 h -11.79 v -0.25 h 11.79 z m -23.59,0 h -11.79 v -0.25 h 11.79 z m -23.59,0 h -11.8 v -0.25 h 11.8 z m -23.59,0 h -11.8 v -0.25 h 11.8 z m -23.59,0 h -11.8 v -0.25 h 11.8 z m -23.6,0 h -11.79 v -0.25 h 11.79 z m -23.59,0 h -11.8 v -0.25 h 11.8 z m -23.59,0 h -11.8 v -0.25 h 11.8 z m -23.59,0 h -11.8 v -0.25 h 11.8 z m -23.6,0 h -11.79 v -0.25 h 11.79 z m -23.59,0 h -11.8 v -0.25 h 11.8 z m -23.59,0 h -11.8 v -0.25 h 11.8 z m -23.59,0 h -11.8 v -0.25 h 11.8 z m -23.6,0 h -11.79 v -0.25 h 11.79 z m -23.59,0 h -11.79 v -0.25 h 11.79 z m -23.59,0 H 492 v -0.25 h 11.8 z m -23.59,0 h -11.8 v -0.25 h 11.8 z m -23.6,0 h -11.79 v -0.25 h 11.79 z m -23.59,0 h -11.79 v -0.25 H 433 Z m -23.59,0 h -11.8 v -0.25 h 11.8 z m -23.59,0 H 374 v -0.25 h 11.8 z m -23.6,0 h -11.79 v -0.25 h 11.79 z"
       transform="translate(-31.03,-79.42)"
       id="path60"
       inkscape:connector-curvature="0"
       style="fill:#f2f2f2" />
    <rect
       x="838.40997"
       y="281.20001"
       width="6"
       height="0.25"
       id="rect62"
       style="fill:#f2f2f2" />
  </g>
  <rect
     x="1019.1417"
     y="372.1362"
     width="34.395164"
     height="10.440516"
     id="rect66"
     style="opacity:0.3;fill:#66cc66;stroke-width:1.62624896" />
  <g
     id="g80"
     transform="matrix(1.6262487,0,0,1.6262487,-354.68082,-226.71364)"
     style="opacity:0.2">
    <rect
       x="301.57999"
       y="371.14001"
       width="6"
       height="0.25"
       id="rect68"
       style="fill:#f2f2f2" />
    <path
       d="m 857.64,450.8 h -11.79 v -0.25 h 11.79 z m -23.59,0 h -11.79 v -0.25 h 11.79 z m -23.59,0 h -11.8 v -0.25 h 11.8 z m -23.59,0 h -11.8 v -0.25 h 11.8 z m -23.59,0 h -11.8 v -0.25 h 11.8 z m -23.6,0 h -11.79 v -0.25 h 11.79 z m -23.59,0 h -11.8 v -0.25 h 11.8 z m -23.59,0 h -11.8 v -0.25 h 11.8 z m -23.59,0 h -11.8 v -0.25 h 11.8 z m -23.6,0 h -11.79 v -0.25 h 11.79 z m -23.59,0 h -11.8 v -0.25 h 11.8 z m -23.59,0 h -11.8 v -0.25 h 11.8 z m -23.59,0 h -11.8 v -0.25 h 11.8 z m -23.6,0 h -11.79 v -0.25 h 11.79 z m -23.59,0 h -11.79 v -0.25 h 11.79 z m -23.59,0 H 492 v -0.25 h 11.8 z m -23.59,0 h -11.8 v -0.25 h 11.8 z m -23.6,0 h -11.79 v -0.25 h 11.79 z m -23.59,0 h -11.79 v -0.25 H 433 Z m -23.59,0 h -11.8 v -0.25 h 11.8 z m -23.59,0 H 374 v -0.25 h 11.8 z m -23.6,0 h -11.79 v -0.25 h 11.79 z"
       transform="translate(-31.03,-79.42)"
       id="path70"
       inkscape:connector-curvature="0"
       style="fill:#f2f2f2" />
    <rect
       x="838.40997"
       y="371.14001"
       width="6"
       height="0.25"
       id="rect72"
       style="fill:#f2f2f2" />
    <rect
       x="301.57999"
       y="371.14001"
       width="6"
       height="0.25"
       id="rect74"
       style="fill:#f2f2f2" />
    <path
       d="m 857.64,450.8 h -11.79 v -0.25 h 11.79 z m -23.59,0 h -11.79 v -0.25 h 11.79 z m -23.59,0 h -11.8 v -0.25 h 11.8 z m -23.59,0 h -11.8 v -0.25 h 11.8 z m -23.59,0 h -11.8 v -0.25 h 11.8 z m -23.6,0 h -11.79 v -0.25 h 11.79 z m -23.59,0 h -11.8 v -0.25 h 11.8 z m -23.59,0 h -11.8 v -0.25 h 11.8 z m -23.59,0 h -11.8 v -0.25 h 11.8 z m -23.6,0 h -11.79 v -0.25 h 11.79 z m -23.59,0 h -11.8 v -0.25 h 11.8 z m -23.59,0 h -11.8 v -0.25 h 11.8 z m -23.59,0 h -11.8 v -0.25 h 11.8 z m -23.6,0 h -11.79 v -0.25 h 11.79 z m -23.59,0 h -11.79 v -0.25 h 11.79 z m -23.59,0 H 492 v -0.25 h 11.8 z m -23.59,0 h -11.8 v -0.25 h 11.8 z m -23.6,0 h -11.79 v -0.25 h 11.79 z m -23.59,0 h -11.79 v -0.25 H 433 Z m -23.59,0 h -11.8 v -0.25 h 11.8 z m -23.59,0 H 374 v -0.25 h 11.8 z m -23.6,0 h -11.79 v -0.25 h 11.79 z"
       transform="translate(-31.03,-79.42)"
       id="path76"
       inkscape:connector-curvature="0"
       style="fill:#f2f2f2" />
    <rect
       x="838.40997"
       y="371.14001"
       width="6"
       height="0.25"
       id="rect78"
       style="fill:#f2f2f2" />
  </g>
  <rect
     x="1019.1417"
     y="445.21982"
     width="34.395164"
     height="10.440516"
     id="rect82"
     style="opacity:0.3;fill:#66cc66;stroke-width:1.62624896" />
  <g
     id="g96"
     transform="matrix(1.6262487,0,0,1.6262487,-354.68082,-226.71364)"
     style="opacity:0.2">
    <rect
       x="301.57999"
       y="416.07001"
       width="6"
       height="0.25"
       id="rect84"
       style="fill:#f2f2f2" />
    <path
       d="m 857.64,495.74 h -11.79 v -0.25 h 11.79 z m -23.59,0 h -11.79 v -0.25 h 11.79 z m -23.59,0 h -11.8 v -0.25 h 11.8 z m -23.59,0 h -11.8 v -0.25 h 11.8 z m -23.59,0 h -11.8 v -0.25 h 11.8 z m -23.6,0 h -11.79 v -0.25 h 11.79 z m -23.59,0 h -11.8 v -0.25 h 11.8 z m -23.59,0 h -11.8 v -0.25 h 11.8 z m -23.59,0 h -11.8 v -0.25 h 11.8 z m -23.6,0 h -11.79 v -0.25 h 11.79 z m -23.59,0 h -11.8 v -0.25 h 11.8 z m -23.59,0 h -11.8 v -0.25 h 11.8 z m -23.59,0 h -11.8 v -0.25 h 11.8 z m -23.6,0 h -11.79 v -0.25 h 11.79 z m -23.59,0 h -11.79 v -0.25 h 11.79 z m -23.59,0 H 492 v -0.25 h 11.8 z m -23.59,0 h -11.8 v -0.25 h 11.8 z m -23.6,0 h -11.79 v -0.25 h 11.79 z m -23.59,0 h -11.79 v -0.25 H 433 Z m -23.59,0 h -11.8 v -0.25 h 11.8 z m -23.59,0 H 374 v -0.25 h 11.8 z m -23.6,0 h -11.79 v -0.25 h 11.79 z"
       transform="translate(-31.03,-79.42)"
       id="path86"
       inkscape:connector-curvature="0"
       style="fill:#f2f2f2" />
    <rect
       x="838.40997"
       y="416.07001"
       width="6"
       height="0.25"
       id="rect88"
       style="fill:#f2f2f2" />
    <rect
       x="301.57999"
       y="416.07001"
       width="6"
       height="0.25"
       id="rect90"
       style="fill:#f2f2f2" />
    <path
       d="m 857.64,495.74 h -11.79 v -0.25 h 11.79 z m -23.59,0 h -11.79 v -0.25 h 11.79 z m -23.59,0 h -11.8 v -0.25 h 11.8 z m -23.59,0 h -11.8 v -0.25 h 11.8 z m -23.59,0 h -11.8 v -0.25 h 11.8 z m -23.6,0 h -11.79 v -0.25 h 11.79 z m -23.59,0 h -11.8 v -0.25 h 11.8 z m -23.59,0 h -11.8 v -0.25 h 11.8 z m -23.59,0 h -11.8 v -0.25 h 11.8 z m -23.6,0 h -11.79 v -0.25 h 11.79 z m -23.59,0 h -11.8 v -0.25 h 11.8 z m -23.59,0 h -11.8 v -0.25 h 11.8 z m -23.59,0 h -11.8 v -0.25 h 11.8 z m -23.6,0 h -11.79 v -0.25 h 11.79 z m -23.59,0 h -11.79 v -0.25 h 11.79 z m -23.59,0 H 492 v -0.25 h 11.8 z m -23.59,0 h -11.8 v -0.25 h 11.8 z m -23.6,0 h -11.79 v -0.25 h 11.79 z m -23.59,0 h -11.79 v -0.25 H 433 Z m -23.59,0 h -11.8 v -0.25 h 11.8 z m -23.59,0 H 374 v -0.25 h 11.8 z m -23.6,0 h -11.79 v -0.25 h 11.79 z"
       transform="translate(-31.03,-79.42)"
       id="path92"
       inkscape:connector-curvature="0"
       style="fill:#f2f2f2" />
    <rect
       x="838.40997"
       y="416.07001"
       width="6"
       height="0.25"
       id="rect94"
       style="fill:#f2f2f2" />
  </g>
  <rect
     x="1019.1417"
     y="518.28717"
     width="34.395164"
     height="10.440516"
     id="rect98"
     style="opacity:0.3;fill:#66cc66;stroke-width:1.62624896" />
  <g
     id="g112"
     transform="matrix(1.6262487,0,0,1.6262487,-354.68082,-226.71364)"
     style="opacity:0.2">
    <rect
       x="301.57999"
       y="461.01001"
       width="6"
       height="0.25"
       id="rect100"
       style="fill:#f2f2f2" />
    <path
       d="m 857.64,540.68 h -11.79 v -0.25 h 11.79 z m -23.59,0 h -11.79 v -0.25 h 11.79 z m -23.59,0 h -11.8 v -0.25 h 11.8 z m -23.59,0 h -11.8 v -0.25 h 11.8 z m -23.59,0 h -11.8 v -0.25 h 11.8 z m -23.6,0 h -11.79 v -0.25 h 11.79 z m -23.59,0 h -11.8 v -0.25 h 11.8 z m -23.59,0 h -11.8 v -0.25 h 11.8 z m -23.59,0 h -11.8 v -0.25 h 11.8 z m -23.6,0 h -11.79 v -0.25 h 11.79 z m -23.59,0 h -11.8 v -0.25 h 11.8 z m -23.59,0 h -11.8 v -0.25 h 11.8 z m -23.59,0 h -11.8 v -0.25 h 11.8 z m -23.6,0 h -11.79 v -0.25 h 11.79 z m -23.59,0 h -11.79 v -0.25 h 11.79 z m -23.59,0 H 492 v -0.25 h 11.8 z m -23.59,0 h -11.8 v -0.25 h 11.8 z m -23.6,0 h -11.79 v -0.25 h 11.79 z m -23.59,0 h -11.79 v -0.25 H 433 Z m -23.59,0 h -11.8 v -0.25 h 11.8 z m -23.59,0 H 374 v -0.25 h 11.8 z m -23.6,0 h -11.79 v -0.25 h 11.79 z"
       transform="translate(-31.03,-79.42)"
       id="path102"
       inkscape:connector-curvature="0"
       style="fill:#f2f2f2" />
    <rect
       x="838.40997"
       y="461.01001"
       width="6"
       height="0.25"
       id="rect104"
       style="fill:#f2f2f2" />
    <rect
       x="301.57999"
       y="461.01001"
       width="6"
       height="0.25"
       id="rect106"
       style="fill:#f2f2f2" />
    <path
       d="m 857.64,540.68 h -11.79 v -0.25 h 11.79 z m -23.59,0 h -11.79 v -0.25 h 11.79 z m -23.59,0 h -11.8 v -0.25 h 11.8 z m -23.59,0 h -11.8 v -0.25 h 11.8 z m -23.59,0 h -11.8 v -0.25 h 11.8 z m -23.6,0 h -11.79 v -0.25 h 11.79 z m -23.59,0 h -11.8 v -0.25 h 11.8 z m -23.59,0 h -11.8 v -0.25 h 11.8 z m -23.59,0 h -11.8 v -0.25 h 11.8 z m -23.6,0 h -11.79 v -0.25 h 11.79 z m -23.59,0 h -11.8 v -0.25 h 11.8 z m -23.59,0 h -11.8 v -0.25 h 11.8 z m -23.59,0 h -11.8 v -0.25 h 11.8 z m -23.6,0 h -11.79 v -0.25 h 11.79 z m -23.59,0 h -11.79 v -0.25 h 11.79 z m -23.59,0 H 492 v -0.25 h 11.8 z m -23.59,0 h -11.8 v -0.25 h 11.8 z m -23.6,0 h -11.79 v -0.25 h 11.79 z m -23.59,0 h -11.79 v -0.25 H 433 Z m -23.59,0 h -11.8 v -0.25 h 11.8 z m -23.59,0 H 374 v -0.25 h 11.8 z m -23.6,0 h -11.79 v -0.25 h 11.79 z"
       transform="translate(-31.03,-79.42)"
       id="path108"
       inkscape:connector-curvature="0"
       style="fill:#f2f2f2" />
    <rect
       x="838.40997"
       y="461.01001"
       width="6"
       height="0.25"
       id="rect110"
       style="fill:#f2f2f2" />
  </g>
  <line
     x1="247.89313"
     y1="231.09166"
     x2="247.89313"
     y2="524.12543"
     stroke-miterlimit="10"
     id="line114"
     style="fill:none;stroke:#f2f2f2;stroke-width:0.16262488;stroke-miterlimit:10" />
  <line
     x1="366.60928"
     y1="231.09166"
     x2="366.60928"
     y2="524.12543"
     stroke-miterlimit="10"
     id="line116"
     style="fill:none;stroke:#f2f2f2;stroke-width:0.16262488;stroke-miterlimit:10" />
  <line
     x1="485.32547"
     y1="231.09166"
     x2="485.32547"
     y2="524.12543"
     stroke-miterlimit="10"
     id="line118"
     style="fill:none;stroke:#f2f2f2;stroke-width:0.16262488;stroke-miterlimit:10" />
  <line
     x1="604.04163"
     y1="231.09166"
     x2="604.04163"
     y2="524.12543"
     stroke-miterlimit="10"
     id="line120"
     style="fill:none;stroke:#f2f2f2;stroke-width:0.16262488;stroke-miterlimit:10" />
  <line
     x1="722.75781"
     y1="231.09166"
     x2="722.75781"
     y2="524.12543"
     stroke-miterlimit="10"
     id="line122"
     style="fill:none;stroke:#f2f2f2;stroke-width:0.16262488;stroke-miterlimit:10" />
  <line
     x1="841.474"
     y1="231.09166"
     x2="841.474"
     y2="524.12543"
     stroke-miterlimit="10"
     id="line124"
     style="fill:none;stroke:#f2f2f2;stroke-width:0.16262488;stroke-miterlimit:10" />
  <line
     x1="960.19012"
     y1="231.09166"
     x2="960.19012"
     y2="524.12543"
     stroke-miterlimit="10"
     id="line126"
     style="fill:none;stroke:#f2f2f2;stroke-width:0.16262488;stroke-miterlimit:10" />
  <path
     d="m 985.86854,211.31646 -13.57917,14.14836 a 4.1469343,4.1469343 0 0 0 -0.68304,0.99201 l -8.42397,17.35208 a 3.8379471,3.8379471 0 0 1 -3.75663,2.16291 l -2.69958,-0.21141 a 3.8379471,3.8379471 0 0 1 -3.41512,-2.76463 l -2.60199,-9.00941 a 3.8542096,3.8542096 0 0 0 -7.35063,-0.17889 l -4.37463,12.81483 a 3.8542096,3.8542096 0 0 1 -3.65905,2.61827 h -16.70157 a 3.870472,3.870472 0 0 1 -3.80543,-3.25251 l -4.71612,-29.5164 a 3.8542096,3.8542096 0 0 0 -7.25306,-1.13838 l -24.18233,47.73041 a 3.8542096,3.8542096 0 0 1 -5.65935,1.41482 l -14.37603,-10.14778 a 3.8867345,3.8867345 0 0 0 -5.15522,0.61797 l -5.44793,6.29358 a 3.6753221,3.6753221 0 0 0 -0.42283,0.60171 l -14.53865,25.15808 a 3.8216846,3.8216846 0 0 1 -3.72412,1.9027 l -8.86305,-0.87817 a 3.8867345,3.8867345 0 0 0 -1.82139,0.26019 l -7.93611,3.17119 a 3.8542096,3.8542096 0 0 1 -4.87873,-2.0328 l -1.7401,-3.98432 a 3.870472,3.870472 0 0 0 -3.70785,-2.30927 l -9.07447,0.42283 a 3.8054221,3.8054221 0 0 0 -2.87845,1.5124 l -2.56947,3.35008 a 3.8542096,3.8542096 0 0 1 -6.70015,-1.07334 l -3.25249,-9.1883 a 3.8542096,3.8542096 0 0 0 -5.95207,-1.80513 l -15.44938,11.5789 -17.07559,13.77433 a 3.870472,3.870472 0 0 1 -4.19573,0.42281 l -13.25393,-6.87903 a 3.8867345,3.8867345 0 0 0 -2.30927,-0.39029 l -26.84938,3.75663 a 3.870472,3.870472 0 0 0 -3.25248,2.95978 l -4.76492,20.70215 a 3.8542096,3.8542096 0 0 1 -6.26105,2.06532 v 0 a 3.870472,3.870472 0 0 0 -5.96833,1.20343 l -3.65907,7.33437 a 3.902997,3.902997 0 0 1 -2.8134,2.08161 l -8.31014,1.38232 a 3.870472,3.870472 0 0 0 -1.49615,0.6017 l -13.09131,8.71669 a 3.8216846,3.8216846 0 0 1 -2.13037,0.6505 h -6.13097 a 3.8542096,3.8542096 0 0 1 -3.54521,-2.32554 l -1.62626,-3.88672 a 3.8542096,3.8542096 0 0 0 -5.17146,-1.93524 l -14.21342,6.65135 a 3.870472,3.870472 0 0 1 -3.62654,-0.17889 l -6.50499,-3.91925 a 3.8867345,3.8867345 0 0 0 -1.98404,-0.55292 h -14.35976 a 3.8542096,3.8542096 0 0 0 -2.13039,0.6505 l -14.32724,9.51355 a 3.8542096,3.8542096 0 0 1 -3.7729,0.27647 l -6.505,-3.07362 a 3.8542096,3.8542096 0 0 0 -4.53724,0.95948 l -3.08987,3.52897 a 3.8379471,3.8379471 0 0 1 -6.26104,-0.65049 l -0.92698,-1.62626 a 3.8542096,3.8542096 0 0 0 -5.33409,-1.4311 l -11.2699,6.68388 a 3.8542096,3.8542096 0 0 1 -3.83796,0 l -4.65106,-2.58573 a 3.8216846,3.8216846 0 0 0 -3.46391,-0.14636 l -4.42339,2.01655 a 3.8867345,3.8867345 0 0 1 -5.28532,-2.3418 l -2.8622,-8.52155 a 3.8216846,3.8216846 0 0 0 -3.67533,-2.68331 h -4.16319 a 3.7728972,3.7728972 0 0 1 -1.87018,-0.48788 l -15.98602,-8.76548 a 3.870472,3.870472 0 0 0 -4.1632,0.309 l -11.72525,8.78174 a 3.8216846,3.8216846 0 0 1 -2.30928,0.76433 H 440.6036 a 3.8216846,3.8216846 0 0 0 -2.1304,0.65051 l -2.76462,1.83766 a 3.8542096,3.8542096 0 0 1 -5.5943,-1.47988 l -0.66675,-1.31727 a 3.8379471,3.8379471 0 0 0 -3.44765,-2.14665 h -7.39943 a 3.8542096,3.8542096 0 0 0 -3.04109,1.49614 l -4.58601,5.87077 a 3.8542096,3.8542096 0 0 1 -6.29359,-0.30899 l -1.30099,-2.0328 a 3.8379471,3.8379471 0 0 0 -5.23654,-1.23596 l -3.80542,2.27674 a 3.870472,3.870472 0 0 1 -4.2445,-0.17888 l -15.33552,-11.10727 a 4.6510714,4.6510714 0 0 0 -0.87818,-0.48788 l -11.98545,-4.6023 a 3.8542096,3.8542096 0 0 0 -4.87875,2.14665 l -8.34267,20.32813 a 3.4801724,3.4801724 0 0 0 -0.24392,0.89443 l -2.69958,18.31156 a 3.870472,3.870472 0 0 1 -1.00828,2.06532 l -5.70813,6.13097 a 3.8867345,3.8867345 0 0 1 -4.69985,0.73181 l -9.90386,-5.49672 a 3.8542096,3.8542096 0 0 0 -5.52924,2.11412 l -6.27733,18.36036 a 3.6915847,3.6915847 0 0 0 -0.21142,1.2522 v 11.57889 a 3.8542096,3.8542096 0 0 1 -2.32553,3.52896 l -10.06647,4.45592 a 3.8542096,3.8542096 0 0 1 -3.49644,-0.22766 l -7.57833,-4.45591 a 3.8542096,3.8542096 0 0 0 -2.50441,-0.48789 l -13.28645,1.90271 a 3.8379471,3.8379471 0 0 1 -3.87047,-1.88645 l -2.24422,-3.83794 a 3.8216846,3.8216846 0 0 0 -2.17918,-1.72382 l -6.03338,-1.88645 a 3.8379471,3.8379471 0 0 0 -4.01685,1.08958 l -8.37517,9.30214 a 3.902997,3.902997 0 0 1 -2.55321,1.26848 l -12.35949,1.04079 a 3.6427973,3.6427973 0 0 0 -1.62626,0.48788 l -21.54779,12.39202 a 3.870472,3.870472 0 0 1 -4.32581,-0.34152 l -6.1147,-4.87874 a 3.902997,3.902997 0 0 0 -2.40685,-0.84566 h -23.15778 a 3.8216846,3.8216846 0 0 1 -3.00856,-1.44736 l -5.83824,-7.28559 a 3.8542096,3.8542096 0 0 0 -5.87075,-0.16263 l -7.0254,7.80599 a 3.8542096,3.8542096 0 0 0 -0.99202,2.56949 v 96.98946 a 3.8542096,3.8542096 0 0 0 3.85422,3.8542 h 835.45278 a 3.8542096,3.8542096 0 0 0 3.8542,-3.87045 l -0.22769,-306.27144 a 3.870472,3.870472 0 0 0 -6.65134,-2.74835 z"
     id="path128"
     inkscape:connector-curvature="0"
     style="opacity:0.3;fill:#66cc66;stroke-width:1.62624896" />
  <path
     d="m 985.12047,336.91164 -12.58717,8.39145 a 4.8787461,4.8787461 0 0 0 -1.15464,1.08959 l -7.82226,10.32668 a 4.8787461,4.8787461 0 0 1 -4.03309,1.88646 l -2.55322,-0.13012 a 4.7811714,4.7811714 0 0 1 -4.1144,-2.79715 l -1.62625,-3.46389 a 4.7486464,4.7486464 0 0 0 -8.5378,-0.27647 l -3.2525,6.22853 a 4.7486464,4.7486464 0 0 1 -4.21199,2.52069 h -16.13238 a 4.7323838,4.7323838 0 0 1 -4.61855,-3.61027 l -3.87048,-15.49815 a 4.7649089,4.7649089 0 0 0 -8.35891,-1.80514 l -23.25536,29.40258 a 4.7323838,4.7323838 0 0 1 -5.69187,1.38231 l -14.94522,-6.74894 a 4.7649089,4.7649089 0 0 0 -4.87876,0.50415 l -5.35035,3.95177 a 4.4233966,4.4233966 0 0 0 -0.69929,0.65049 l -14.11583,15.62827 a 4.7649089,4.7649089 0 0 1 -3.83796,1.62624 l -9.22084,-0.58545 a 5.1389461,5.1389461 0 0 0 -1.49613,0.13011 l -8.31014,2.13038 a 4.7486464,4.7486464 0 0 1 -5.12267,-1.91899 l -0.94324,-1.39856 a 4.7649089,4.7649089 0 0 0 -4.06561,-2.06534 l -9.26962,0.27646 a 4.5860215,4.5860215 0 0 0 -2.911,1.10586 l -2.27674,1.90271 a 4.7649089,4.7649089 0 0 1 -7.23681,-1.34979 l -2.40686,-4.35834 a 4.7649089,4.7649089 0 0 0 -6.22851,-2.00029 l -15.59573,7.49699 -17.2545,8.91186 a 4.7323838,4.7323838 0 0 1 -3.67533,0.27646 l -13.74179,-4.55349 a 4.8787461,4.8787461 0 0 0 -1.91897,-0.22768 l -26.60545,2.2605 a 4.8787461,4.8787461 0 0 0 -4.0656,3.13865 l -3.85421,10.76577 a 4.7649089,4.7649089 0 0 1 -6.76521,2.56946 l -0.16262,-0.0814 a 4.7323838,4.7323838 0 0 0 -6.03337,1.23595 l -3.02484,3.87046 a 4.8787461,4.8787461 0 0 1 -3.2525,1.80515 l -8.32638,0.89443 a 4.8787461,4.8787461 0 0 0 -1.36605,0.34151 l -13.18887,5.64309 a 4.9763212,4.9763212 0 0 1 -1.87019,0.37405 h -6.34238 a 4.7649089,4.7649089 0 0 1 -3.93551,-2.08161 l -0.91071,-1.33353 a 4.7649089,4.7649089 0 0 0 -5.30157,-1.87018 l -14.7826,4.47218 a 4.7811714,4.7811714 0 0 1 -3.08987,-0.11388 l -6.86276,-2.63453 a 4.6835965,4.6835965 0 0 0 -1.62625,-0.32525 h -14.73383 a 4.569759,4.569759 0 0 0 -1.85391,0.39031 l -14.63624,6.21226 a 4.7161213,4.7161213 0 0 1 -3.25251,0.17889 l -7.2368,-2.1629 a 4.7811714,4.7811714 0 0 0 -4.17947,0.71553 l -3.17117,2.32554 a 4.7649089,4.7649089 0 0 1 -6.39116,-0.69928 l -0.47163,-0.53667 a 4.7649089,4.7649089 0 0 0 -5.26903,-1.31726 l -11.79031,4.50472 a 4.7486464,4.7486464 0 0 1 -3.2525,0 l -5.17147,-1.85394 a 4.8787461,4.8787461 0 0 0 -2.92724,-0.0813 l -4.87876,1.41484 a 4.7649089,4.7649089 0 0 1 -5.57802,-2.43936 l -1.8214,-3.65908 a 4.7811714,4.7811714 0 0 0 -4.26078,-2.63453 h -4.22824 a 4.7161213,4.7161213 0 0 1 -1.62624,-0.26019 l -16.40886,-5.75692 a 4.7161213,4.7161213 0 0 0 -3.64279,0.19515 l -11.98545,5.75692 a 4.8787461,4.8787461 0 0 1 -2.06534,0.47161 h -15.14037 a 4.9763212,4.9763212 0 0 0 -1.87019,0.37404 l -3.08987,1.33352 a 4.7811714,4.7811714 0 0 1 -5.62683,-1.44737 v 0 a 4.7486464,4.7486464 0 0 0 -3.75663,-1.83765 h -7.64336 a 4.7811714,4.7811714 0 0 0 -3.02484,1.07332 l -4.43965,3.64281 a 4.7323838,4.7323838 0 0 1 -6.39116,-0.32525 l -1.00829,-1.00827 a 4.7649089,4.7649089 0 0 0 -5.09014,-1.0896 l -4.4234,1.70756 a 4.8787461,4.8787461 0 0 1 -3.72411,-0.1301 l -15.56319,-7.22056 a 3.8542096,3.8542096 0 0 0 -0.86191,-0.2927 l -12.21314,-3.00856 a 4.7323838,4.7323838 0 0 0 -5.13895,2.04907 l -7.6759,11.9692 a 4.8787461,4.8787461 0 0 0 -0.63423,1.49614 l -2.32553,10.16406 a 4.8787461,4.8787461 0 0 1 -1.95151,2.86218 l -5.07388,3.48019 a 4.7161213,4.7161213 0 0 1 -4.27704,0.55292 l -10.44051,-3.70785 a 4.7649089,4.7649089 0 0 0 -5.83824,2.34179 l -5.49672,10.2779 a 4.8787461,4.8787461 0 0 0 -0.55292,2.24423 v 4.63481 a 4.7811714,4.7811714 0 0 1 -3.49645,4.58602 l -9.13951,2.53694 a 4.6835965,4.6835965 0 0 1 -2.94352,-0.1301 L 288.777,463.7589 a 4.6835965,4.6835965 0 0 0 -2.11411,-0.29271 l -13.74181,1.25221 a 4.7161213,4.7161213 0 0 1 -3.95179,-1.52866 l -1.62625,-1.80515 a 4.6185464,4.6185464 0 0 0 -2.58573,-1.46362 l -6.26105,-1.26848 a 4.8787461,4.8787461 0 0 0 -3.70786,0.79686 l -8.24508,5.87076 a 4.8787461,4.8787461 0 0 1 -2.50442,0.87818 l -12.63595,0.66675 a 4.9763212,4.9763212 0 0 0 -1.39857,0.29272 l -21.9381,8.13126 a 4.6510714,4.6510714 0 0 1 -3.80543,-0.2277 l -6.34235,-3.25247 a 4.7649089,4.7649089 0 0 0 -2.16292,-0.52042 h -23.5806 a 4.7649089,4.7649089 0 0 1 -2.9923,-1.05699 l -5.70814,-4.56977 a 4.7649089,4.7649089 0 0 0 -5.74066,-0.16262 l -6.11469,4.35834 a 4.7811714,4.7811714 0 0 0 -2.00029,3.88674 v 45.71385 a 4.7649089,4.7649089 0 0 0 4.76491,4.76492 h 833.59885 a 4.7649089,4.7649089 0 0 0 4.76491,-4.76492 l -0.22769,-178.51334 a 4.7649089,4.7649089 0 0 0 -7.39941,-4.03308 z"
     id="path130"
     inkscape:connector-curvature="0"
     style="opacity:0.3;fill:#66cc66;stroke-width:1.62624896" />
  <circle
     cx="988.48676"
     cy="335.70819"
     r="11.383742"
     id="circle132"
     style="fill:#66cc66;stroke-width:1.62624896" />
  <path
     d="m 987.755,448.32595 -15.46563,5.1552 a 4.0493594,4.0493594 0 0 0 -0.84566,0.40656 l -8.48902,5.61056 a 3.6102723,3.6102723 0 0 1 -2.08159,0.58546 l -5.28532,-0.13009 a 3.6102723,3.6102723 0 0 1 -2.60199,-1.18718 l -3.2525,-3.57774 a 3.6265347,3.6265347 0 0 0 -5.17148,-0.21141 l -5.48045,5.13894 a 3.5777473,3.5777473 0 0 1 -2.4719,0.99201 h -18.99458 a 3.5940098,3.5940098 0 0 1 -3.2525,-2.01654 l -4.34208,-8.6679 a 3.6265347,3.6265347 0 0 0 -5.17147,-1.44738 l -26.8819,17.02684 a 3.6590597,3.6590597 0 0 1 -2.7321,0.4716 l -18.40912,-4.14692 a 3.5289598,3.5289598 0 0 0 -2.04908,0.13009 l -6.7164,2.48816 a 2.2930107,2.2930107 0 0 0 -0.50416,0.22768 l -14.84765,8.22882 a 3.7403721,3.7403721 0 0 1 -1.87019,0.45535 l -10.99343,-0.35778 a 3.2524975,3.2524975 0 0 0 -0.56918,0 l -10.57063,1.34979 a 3.6915847,3.6915847 0 0 1 -2.60199,-0.66676 l -2.14664,-1.62625 a 3.5777473,3.5777473 0 0 0 -2.19545,-0.69928 l -11.59516,0.16261 a 3.4476473,3.4476473 0 0 0 -1.34976,0.27647 l -5.20402,2.19544 a 3.6427973,3.6427973 0 0 1 -3.83794,-0.66676 l -4.26077,-3.7729 a 3.6102723,3.6102723 0 0 0 -3.25251,-0.82939 l -17.79114,4.29329 -18.2953,4.73239 a 3.5614848,3.5614848 0 0 1 -1.49615,0 l -15.44937,-2.56948 a 5.7731831,5.7731831 0 0 0 -0.74807,0 l -28.57318,1.28474 a 3.6102723,3.6102723 0 0 0 -2.78089,1.51241 l -4.30957,5.93582 a 3.6102723,3.6102723 0 0 1 -3.90299,1.38231 l -4.60229,-1.26848 a 3.6753221,3.6753221 0 0 0 -2.91098,0.45535 l -4.60228,2.94349 a 3.7241095,3.7241095 0 0 1 -1.75635,0.55295 l -9.75751,0.53665 a 3.2524975,3.2524975 0 0 0 -0.55291,0 l -14.08331,3.00857 a 4.065622,4.065622 0 0 1 -0.76434,0.0813 h -8.26135 a 3.5940098,3.5940098 0 0 1 -2.13039,-0.69928 l -2.14665,-1.62625 a 3.5614848,3.5614848 0 0 0 -2.66704,-0.66677 l -17.57976,2.63453 a 3.8379471,3.8379471 0 0 1 -1.21967,0 l -8.26134,-1.62625 a 3.2524975,3.2524975 0 0 0 -0.68303,0 h -15.85593 a 3.902997,3.902997 0 0 0 -0.74808,0 l -16.08359,3.41512 a 3.4964348,3.4964348 0 0 1 -1.30101,0 l -9.5786,-1.44737 a 3.7241095,3.7241095 0 0 0 -1.78887,0.19515 l -6.14723,2.24423 a 3.5614848,3.5614848 0 0 1 -3.04108,-0.2602 l -2.91098,-1.62624 a 3.5126972,3.5126972 0 0 0 -2.45565,-0.42283 l -14.63622,2.78089 a 3.5940098,3.5940098 0 0 1 -1.31727,0 l -7.04165,-1.25222 a 3.9355219,3.9355219 0 0 0 -1.15464,0 l -7.77348,1.12211 a 3.5777473,3.5777473 0 0 1 -3.0736,-1.00827 l -2.56948,-2.45563 a 3.7078471,3.7078471 0 0 0 -2.56946,-1.05706 h -6.16349 a 3.8054221,3.8054221 0 0 1 -0.61798,0 l -17.98631,-3.15493 a 3.4964348,3.4964348 0 0 0 -1.47989,0 l -13.59543,3.2525 a 3.6427973,3.6427973 0 0 1 -0.84565,0.0976 H 439.823 a 3.7566345,3.7566345 0 0 0 -0.74807,0 l -5.54552,1.18715 a 3.7078471,3.7078471 0 0 1 -2.78089,-0.32524 l -1.52866,-0.99201 a 3.6427973,3.6427973 0 0 0 -1.95151,-0.56918 h -9.90385 a 3.5940098,3.5940098 0 0 0 -1.36605,0.27645 l -6.92782,2.82968 a 3.5614848,3.5614848 0 0 1 -2.9923,-0.11377 l -3.67531,-1.85394 a 3.6590597,3.6590597 0 0 0 -2.30928,-0.32524 l -7.25307,1.39857 a 3.5777473,3.5777473 0 0 1 -1.49615,0 l -16.81542,-3.90303 h -0.37404 l -14.29472,-1.77261 a 3.6753221,3.6753221 0 0 0 -2.66705,0.74807 l -8.13123,6.30986 a 3.5452221,3.5452221 0 0 0 -1.05708,1.33351 l -1.8214,4.04935 a 3.6590597,3.6590597 0 0 1 -2.11411,1.91898 l -6.2448,2.13041 a 3.4151224,3.4151224 0 0 1 -1.80513,0.14635 l -13.88818,-2.4719 a 3.6427973,3.6427973 0 0 0 -3.10613,0.92695 l -5.51298,5.15522 a 3.6102723,3.6102723 0 0 0 -1.13837,2.65079 v 0 a 3.6102723,3.6102723 0 0 1 -3.12241,3.57774 l -10.42423,1.44736 a 3.5452221,3.5452221 0 0 1 -1.17091,0 l -9.43224,-1.78887 a 3.6427973,3.6427973 0 0 0 -0.84565,0 l -15.75836,0.71555 a 3.7241095,3.7241095 0 0 1 -1.9027,-0.4391 l -2.76464,-1.5124 a 3.4476473,3.4476473 0 0 0 -1.38231,-0.43908 l -8.27759,-0.82939 a 3.7078471,3.7078471 0 0 0 -1.62626,0.19515 l -9.7575,3.4639 a 3.7078471,3.7078471 0 0 1 -1.12208,0.21142 l -13.87193,0.37404 a 3.3663349,3.3663349 0 0 0 -0.56917,0 l -23.4993,4.34207 a 3.8054221,3.8054221 0 0 1 -1.54494,0 l -8.00114,-2.04906 a 4.2282467,4.2282467 0 0 0 -0.9107,-0.11389 h -25.22311 a 3.4476473,3.4476473 0 0 1 -1.3498,-0.2602 l -7.90358,-3.15492 a 3.5940098,3.5940098 0 0 0 -2.56946,0 l -7.35063,2.61826 a 3.5940098,3.5940098 0 0 0 -2.40687,3.39886 v 1.62624 a 3.6102723,3.6102723 0 0 0 3.61028,3.62654 H 989.0885 a 3.6102723,3.6102723 0 0 0 3.61029,-3.62654 l -0.21142,-68.74152 a 3.6265347,3.6265347 0 0 0 -4.73237,-3.59402 z"
     id="path134"
     inkscape:connector-curvature="0"
     style="opacity:0.3;fill:#66cc66;stroke-width:1.62624896" />
  <circle
     cx="362.38101"
     cy="412.14191"
     r="11.383742"
     id="circle136"
     style="fill:#66cc66;stroke-width:1.62624896" />
  <circle
     cx="908.80054"
     cy="340.58701"
     r="11.383742"
     id="circle138"
     style="fill:#66cc66;stroke-width:1.62624896" />
  <circle
     cx="625.83325"
     cy="417.02063"
     r="11.383742"
     id="circle140"
     style="fill:#66cc66;stroke-width:1.62624896" />
  <circle
     cx="773.82196"
     cy="376.36441"
     r="11.383742"
     id="circle142"
     style="fill:#66cc66;stroke-width:1.62624896" />
  <path
     d="m 994.14613,340.84717 a 4.7649089,4.7649089 0 0 0 -7.39942,-3.95179 l -12.58716,8.39146 a 4.8787461,4.8787461 0 0 0 -1.15463,1.08958 l -7.82227,10.32668 a 4.8787461,4.8787461 0 0 1 -4.0331,1.88644 l -2.55321,-0.13009 a 4.7811714,4.7811714 0 0 1 -4.1144,-2.79715 l -1.62625,-3.46391 a 4.7486464,4.7486464 0 0 0 -8.53781,-0.27647 l -3.25249,6.22854 a 4.7486464,4.7486464 0 0 1 -4.21199,2.52068 H 920.721 a 4.7323838,4.7323838 0 0 1 -4.61853,-3.61027 l -3.87048,-15.49815 a 4.7649089,4.7649089 0 0 0 -8.35891,-1.80513 l -23.25536,29.40256 a 4.7323838,4.7323838 0 0 1 -5.69188,1.38232 l -14.94522,-6.74893 a 4.7649089,4.7649089 0 0 0 -4.87874,0.50413 l -5.35037,3.95179 a 4.4233966,4.4233966 0 0 0 -0.69928,0.6505 l -14.11583,15.62825 a 4.7649089,4.7649089 0 0 1 -3.83795,1.62625 l -9.22084,-0.58544 a 5.1389461,5.1389461 0 0 0 -1.49614,0.1301 l -8.31013,2.13037 a 4.7486464,4.7486464 0 0 1 -5.12268,-1.91897 l -0.94325,-1.39858 a 4.7649089,4.7649089 0 0 0 -4.0656,-2.06533 l -9.26963,0.27647 a 4.5860215,4.5860215 0 0 0 -2.91098,1.10585 l -2.27675,1.9027 a 4.7649089,4.7649089 0 0 1 -7.2368,-1.34978 l -2.40685,-4.35835 a 4.7649089,4.7649089 0 0 0 -6.22854,-2.0003 l -15.59572,7.49702 -17.2545,8.91186 a 4.7323838,4.7323838 0 0 1 -3.67533,0.27645 l -13.7418,-4.5535 a 4.8787461,4.8787461 0 0 0 -1.91897,-0.22766 l -26.60543,2.27675 a 4.8787461,4.8787461 0 0 0 -4.06561,3.13865 l -3.8542,10.76577 a 4.7649089,4.7649089 0 0 1 -6.76521,2.56946 l -0.16263,-0.0814 a 4.7323838,4.7323838 0 0 0 -6.03339,1.23595 l -3.02482,3.87046 a 4.8787461,4.8787461 0 0 1 -3.25249,1.80515 l -8.32639,0.89443 a 4.8787461,4.8787461 0 0 0 -1.36605,0.34151 l -13.18888,5.64309 a 4.9763212,4.9763212 0 0 1 -1.87019,0.37405 h -6.34237 a 4.7649089,4.7649089 0 0 1 -3.93552,-2.08161 l -0.91069,-1.33353 a 4.7649089,4.7649089 0 0 0 -5.30158,-1.87018 l -14.78261,4.47218 a 4.7811714,4.7811714 0 0 1 -3.08987,-0.11388 l -6.86277,-2.63453 a 4.6835965,4.6835965 0 0 0 -1.62623,-0.32525 h -14.73382 a 4.569759,4.569759 0 0 0 -1.85393,0.39031 l -14.63624,6.21226 a 4.7161213,4.7161213 0 0 1 -3.25249,0.17889 l -7.23682,-2.1629 a 4.7811714,4.7811714 0 0 0 -4.17946,0.71553 l -3.17117,2.32554 a 4.7649089,4.7649089 0 0 1 -6.39117,-0.69928 l -0.47161,-0.53667 a 4.7649089,4.7649089 0 0 0 -5.26904,-1.31726 l -11.79031,4.50472 a 4.7486464,4.7486464 0 0 1 -3.25249,0 l -5.17148,-1.85394 a 4.8787461,4.8787461 0 0 0 -2.92724,-0.0813 l -4.87875,1.41484 a 4.7649089,4.7649089 0 0 1 -5.57803,-2.43936 l -1.8214,-3.65908 a 4.7811714,4.7811714 0 0 0 -4.26078,-2.63453 h -4.22824 a 4.7161213,4.7161213 0 0 1 -1.62625,-0.26019 l -16.40883,-5.75692 a 4.7161213,4.7161213 0 0 0 -3.64282,0.19515 l -11.98545,5.75692 a 4.8787461,4.8787461 0 0 1 -2.06533,0.47161 h -15.14037 a 4.9763212,4.9763212 0 0 0 -1.87018,0.37404 l -3.08988,1.33352 a 4.7811714,4.7811714 0 0 1 -5.62682,-1.44737 v 0 a 4.7486464,4.7486464 0 0 0 -3.75663,-1.83765 h -7.64338 a 4.7811714,4.7811714 0 0 0 -3.02482,1.07332 l -4.43965,3.64281 a 4.7323838,4.7323838 0 0 1 -6.39118,-0.32525 l -1.00827,-1.00827 a 4.7649089,4.7649089 0 0 0 -5.09016,-1.0896 l -4.42339,1.70756 a 4.8787461,4.8787461 0 0 1 -3.72412,-0.1301 l -15.5632,-7.22046 a 3.8542096,3.8542096 0 0 0 -0.86191,-0.2927 l -12.21313,-3.00856 a 4.7323838,4.7323838 0 0 0 -5.13893,2.04907 l -7.67591,11.9692 a 4.8787461,4.8787461 0 0 0 -0.63423,1.49614 l -2.32553,10.16406 a 4.8787461,4.8787461 0 0 1 -1.95151,2.86218 l -5.0739,3.48019 a 4.7161213,4.7161213 0 0 1 -4.27702,0.55292 l -10.44053,-3.70786 a 4.7649089,4.7649089 0 0 0 -5.83823,2.3418 l -5.49672,10.2779 a 4.8787461,4.8787461 0 0 0 -0.55291,2.24423 v 4.63481 a 4.7811714,4.7811714 0 0 1 -3.49644,4.58602 l -9.13953,2.53694 a 4.6835965,4.6835965 0 0 1 -2.9435,-0.1301 l -7.96863,-3.00857 a 4.6835965,4.6835965 0 0 0 -2.11412,-0.29271 l -13.7418,1.25221 a 4.7161213,4.7161213 0 0 1 -3.95178,-1.52867 l -1.62626,-1.80515 a 4.6185464,4.6185464 0 0 0 -2.58572,-1.46363 l -6.26107,-1.26847 a 4.8787461,4.8787461 0 0 0 -3.70784,0.79686 l -8.24508,5.87076 a 4.8787461,4.8787461 0 0 1 -2.50442,0.87818 l -12.63595,0.66675 a 4.9763212,4.9763212 0 0 0 -1.39858,0.29273 l -21.93809,8.13125 a 4.6510714,4.6510714 0 0 1 -3.80543,-0.22769 l -6.34238,-3.25248 a 4.7649089,4.7649089 0 0 0 -2.1629,-0.52041 h -23.5806 a 4.7649089,4.7649089 0 0 1 -2.9923,-1.05705 l -5.70813,-4.56977 a 4.7649089,4.7649089 0 0 0 -5.74067,-0.16262 l -6.1147,4.35834 a 4.7811714,4.7811714 0 0 0 -2.00027,3.88674"
     stroke-miterlimit="10"
     id="path144"
     inkscape:connector-curvature="0"
     style="fill:none;stroke:#66cc66;stroke-width:1.62624896;stroke-miterlimit:10" />
  <rect
     x="102.18122"
     y="590.948"
     width="951.35559"
     height="0.16262488"
     id="rect146"
     style="opacity:0.2;fill:#f2f2f2;stroke-width:1.62624896" />
  <circle
     cx="248.54361"
     cy="591.0293"
     r="8.1312437"
     id="circle148"
     style="opacity:0.3;fill:#66cc66;stroke-width:1.62624896" />
  <circle
     cx="367.25974"
     cy="591.0293"
     r="8.1312437"
     id="circle150"
     style="opacity:0.3;fill:#66cc66;stroke-width:1.62624896" />
  <circle
     cx="485.97592"
     cy="591.0293"
     r="8.1312437"
     id="circle152"
     style="opacity:0.3;fill:#66cc66;stroke-width:1.62624896" />
  <circle
     cx="604.69208"
     cy="591.0293"
     r="8.1312437"
     id="circle154"
     style="opacity:0.3;fill:#66cc66;stroke-width:1.62624896" />
  <circle
     cx="723.40826"
     cy="591.0293"
     r="8.1312437"
     id="circle156"
     style="opacity:0.3;fill:#66cc66;stroke-width:1.62624896" />
  <circle
     cx="842.12439"
     cy="591.0293"
     r="8.1312437"
     id="circle158"
     style="opacity:0.3;fill:#66cc66;stroke-width:1.62624896" />
  <circle
     cx="960.84045"
     cy="591.0293"
     r="8.1312437"
     id="circle160"
     style="opacity:0.3;fill:#66cc66;stroke-width:1.62624896" />
</svg>
