<?xml version="1.0" encoding="UTF-8" standalone="no"?>
<svg
   xmlns:dc="http://purl.org/dc/elements/1.1/"
   xmlns:cc="http://creativecommons.org/ns#"
   xmlns:rdf="http://www.w3.org/1999/02/22-rdf-syntax-ns#"
   xmlns:svg="http://www.w3.org/2000/svg"
   xmlns="http://www.w3.org/2000/svg"
   xmlns:xlink="http://www.w3.org/1999/xlink"
   xmlns:sodipodi="http://sodipodi.sourceforge.net/DTD/sodipodi-0.dtd"
   xmlns:inkscape="http://www.inkscape.org/namespaces/inkscape"
   id="e7d62c2c-c7a6-4c77-8f5c-a3fe0c7ac473"
   data-name="Layer 1"
   width="1062"
   height="794.36"
   viewBox="0 0 1062 794.36"
   version="1.1"
   sodipodi:docname="manage-invert-small.svg"
   inkscape:version="0.92.4 (5da689c313, 2019-01-14)">
  <metadata
     id="metadata376">
    <rdf:RDF>
      <cc:Work
         rdf:about="">
        <dc:format>image/svg+xml</dc:format>
        <dc:type
           rdf:resource="http://purl.org/dc/dcmitype/StillImage" />
      </cc:Work>
    </rdf:RDF>
  </metadata>
  <sodipodi:namedview
     pagecolor="#ffffff"
     bordercolor="#666666"
     borderopacity="1"
     objecttolerance="10"
     gridtolerance="10"
     guidetolerance="10"
     inkscape:pageopacity="0"
     inkscape:pageshadow="2"
     inkscape:window-width="1920"
     inkscape:window-height="1001"
     id="namedview374"
     showgrid="false"
     inkscape:zoom="0.78"
     inkscape:cx="320.10256"
     inkscape:cy="403.7671"
     inkscape:window-x="-9"
     inkscape:window-y="-9"
     inkscape:window-maximized="1"
     inkscape:current-layer="e7d62c2c-c7a6-4c77-8f5c-a3fe0c7ac473"
     showguides="true"
     inkscape:guide-bbox="true" />
  <defs
     id="defs43">
    <linearGradient
       id="85112d37-9806-4565-a0ea-8879143619cd"
       x1="643.38"
       y1="527.87"
       x2="643.38"
       y2="439.13"
       gradientUnits="userSpaceOnUse">
      <stop
         offset="0"
         stop-color="gray"
         stop-opacity="0.25"
         id="stop2" />
      <stop
         offset="0.54"
         stop-color="gray"
         stop-opacity="0.12"
         id="stop4" />
      <stop
         offset="1"
         stop-color="gray"
         stop-opacity="0.1"
         id="stop6" />
    </linearGradient>
    <linearGradient
       id="df208e3c-a3f5-4fc2-8354-a8814a1a7545"
       x1="601.44"
       y1="846.53"
       x2="601.44"
       y2="825.32"
       xlink:href="#85112d37-9806-4565-a0ea-8879143619cd"
       gradientTransform="matrix(1.4657506,0,0,1.4657506,-361.55527,-453.46534)" />
    <linearGradient
       id="f31dc2d4-0d93-40f6-a24d-a9bceb1557a5"
       x1="567.25"
       y1="842.29"
       x2="567.25"
       y2="821.08"
       xlink:href="#85112d37-9806-4565-a0ea-8879143619cd"
       gradientTransform="matrix(1.4657506,0,0,1.4657506,-361.55527,-453.46534)" />
    <linearGradient
       id="f0ebc0e0-65f1-47cb-b776-261c995964f9"
       x1="561.22"
       y1="836.11"
       x2="561.22"
       y2="827.95"
       xlink:href="#85112d37-9806-4565-a0ea-8879143619cd" />
    <linearGradient
       id="93f025d2-5adc-499b-9d9a-f633acaed05b"
       x1="597.88"
       y1="835.38"
       x2="597.88"
       y2="826.89"
       xlink:href="#85112d37-9806-4565-a0ea-8879143619cd" />
    <linearGradient
       id="7be7b514-f490-43c2-8f6f-9e415e928302"
       x1="584.67"
       y1="835.03"
       x2="584.67"
       y2="620.5"
       xlink:href="#85112d37-9806-4565-a0ea-8879143619cd"
       gradientTransform="matrix(1.4657506,0,0,1.4657506,-361.55527,-453.46534)" />
    <linearGradient
       id="33a20f31-fcc2-4a92-ab49-195e19cfaaaa"
       x1="599.49"
       y1="728.89"
       x2="599.49"
       y2="728.32"
       xlink:href="#85112d37-9806-4565-a0ea-8879143619cd" />
    <linearGradient
       id="de6a0646-a91b-46a0-9afb-f46952816772"
       x1="600.1"
       y1="734.92"
       x2="600.1"
       y2="733.61"
       xlink:href="#85112d37-9806-4565-a0ea-8879143619cd" />
    <linearGradient
       id="04d37134-577c-4403-8fe6-8ed7eba6d70a"
       x1="562.27"
       y1="733.65"
       x2="562.27"
       y2="731.44"
       xlink:href="#85112d37-9806-4565-a0ea-8879143619cd" />
    <linearGradient
       id="8776c570-d85f-4376-8246-d2602742eda7"
       x1="542.46"
       y1="629.42"
       x2="542.46"
       y2="579.01"
       xlink:href="#85112d37-9806-4565-a0ea-8879143619cd"
       gradientTransform="matrix(1.4657506,0,0,1.4657506,-361.55527,-453.46534)" />
    <linearGradient
       id="6e2a29df-8464-4633-8e1b-f9ea2b2d5fc1"
       x1="522.24"
       y1="440.19"
       x2="522.24"
       y2="398.37"
       xlink:href="#85112d37-9806-4565-a0ea-8879143619cd"
       gradientTransform="matrix(1.4657506,0,0,1.4657506,-260.41847,-376.0444)" />
    <linearGradient
       id="e33e2ef7-473f-4cd6-b28c-ecb98abedfac"
       x1="587.13"
       y1="513.38"
       x2="587.13"
       y2="481.17"
       xlink:href="#85112d37-9806-4565-a0ea-8879143619cd"
       gradientTransform="matrix(1.4657506,0,0,1.4657506,-361.55527,-453.46534)" />
    <linearGradient
       id="f5b9f2bb-2c0e-46fc-9c28-4202a4412ecd"
       x1="584.99"
       y1="635.45"
       x2="584.99"
       y2="620.5"
       xlink:href="#85112d37-9806-4565-a0ea-8879143619cd" />
    <linearGradient
       id="f29e8a79-8a58-4993-a70a-b992b7a832bd"
       x1="582.84"
       y1="633.82"
       x2="582.84"
       y2="496.72"
       xlink:href="#85112d37-9806-4565-a0ea-8879143619cd"
       gradientTransform="matrix(1.4657506,0,0,1.4657506,-361.55527,-453.46534)" />
    <linearGradient
       id="c04eac17-4773-4368-bae0-7265c9e76607"
       x1="540.32"
       y1="582.71"
       x2="540.32"
       y2="532.75"
       xlink:href="#85112d37-9806-4565-a0ea-8879143619cd"
       gradientTransform="matrix(1.4657506,0,0,1.4657506,-361.55527,-453.46534)" />
    <linearGradient
       id="3c970590-dd1c-4631-9f7e-f9b23acb9d2d"
       x1="540.3"
       y1="582.71"
       x2="540.3"
       y2="572.18"
       xlink:href="#85112d37-9806-4565-a0ea-8879143619cd" />
    <linearGradient
       id="cab065ab-ef79-48f8-9c0a-09d4e188359a"
       x1="581.11"
       y1="582.41"
       x2="581.11"
       y2="570.86"
       xlink:href="#85112d37-9806-4565-a0ea-8879143619cd" />
    <linearGradient
       id="d718cee3-9c00-4171-a05a-14de0f48f667"
       x1="609.77"
       y1="606.98"
       x2="609.77"
       y2="588.96"
       xlink:href="#85112d37-9806-4565-a0ea-8879143619cd" />
    <linearGradient
       id="8f995e39-4892-4832-8cdc-33159eeee44f"
       x1="567.9"
       y1="608.02"
       x2="567.9"
       y2="605.46"
       xlink:href="#85112d37-9806-4565-a0ea-8879143619cd" />
    <linearGradient
       id="ba1bc673-7a43-4daf-b3ca-7287eecc4ed3"
       x1="604.87"
       y1="541.68"
       x2="604.87"
       y2="524.88"
       xlink:href="#85112d37-9806-4565-a0ea-8879143619cd" />
    <linearGradient
       id="d005e3fc-d6fe-48e9-9aec-3eb63feaa3ce"
       x1="544.43"
       y1="525.13"
       x2="544.43"
       y2="513.92"
       xlink:href="#85112d37-9806-4565-a0ea-8879143619cd" />
    <linearGradient
       id="8f44d692-9086-4f84-9d84-a3a660414f29"
       x1="538.8"
       y1="564.15"
       x2="538.8"
       y2="557.55"
       xlink:href="#85112d37-9806-4565-a0ea-8879143619cd"
       gradientTransform="matrix(1.4657506,0,0,1.4657506,-361.55527,-453.46534)" />
    <linearGradient
       id="34b8f87b-81de-41c4-ae6e-1a72ec4cce6a"
       x1="539.06"
       y1="552.57"
       x2="539.06"
       y2="547.23"
       xlink:href="#85112d37-9806-4565-a0ea-8879143619cd" />
    <linearGradient
       id="aa860263-0dba-4287-a003-5e39ffdf9739"
       x1="603.19"
       y1="655.98"
       x2="603.19"
       y2="652.51"
       xlink:href="#85112d37-9806-4565-a0ea-8879143619cd" />
    <linearGradient
       id="b0bcbe2d-d614-49a6-948e-a79a535d5283"
       x1="565.55"
       y1="657.11"
       x2="565.55"
       y2="654.23"
       xlink:href="#85112d37-9806-4565-a0ea-8879143619cd" />
    <linearGradient
       id="1ff6b976-6854-4bdb-b047-1feedf56385b"
       x1="599.22"
       y1="663.17"
       x2="599.22"
       y2="662.83"
       xlink:href="#85112d37-9806-4565-a0ea-8879143619cd" />
    <linearGradient
       id="4cf659f5-9d55-4c93-bc8b-15c9a9403b0a"
       x1="558.65"
       y1="671.73"
       x2="558.65"
       y2="667.08"
       xlink:href="#85112d37-9806-4565-a0ea-8879143619cd" />
    <linearGradient
       id="ddaf5e28-e506-4c9e-ad2d-295c8c59bc2c"
       x1="582.1"
       y1="584.56"
       x2="582.1"
       y2="434.29"
       xlink:href="#85112d37-9806-4565-a0ea-8879143619cd"
       gradientTransform="matrix(1.4657506,0,0,1.4657506,-361.55527,-453.46534)" />
    <linearGradient
       id="ba62206a-581b-4ba2-9912-7589baa777ba"
       x1="542.98"
       y1="501.81"
       x2="542.98"
       y2="477.61"
       xlink:href="#85112d37-9806-4565-a0ea-8879143619cd" />
    <linearGradient
       id="1d302a68-2b53-4616-82c0-9d32bf7b435e"
       x1="547.17"
       y1="562.43"
       x2="547.17"
       y2="534.56"
       xlink:href="#85112d37-9806-4565-a0ea-8879143619cd" />
    <linearGradient
       id="0da18ff1-7e19-420b-8354-a9457e98fcb1"
       x1="581.02"
       y1="584.83"
       x2="581.02"
       y2="554.96"
       xlink:href="#85112d37-9806-4565-a0ea-8879143619cd" />
    <linearGradient
       id="86e6b7f7-4a58-4701-a141-596d9c5da905"
       x1="618.43"
       y1="484.19"
       x2="618.43"
       y2="462.35"
       xlink:href="#85112d37-9806-4565-a0ea-8879143619cd" />
    <linearGradient
       id="3a8eff62-0f79-4f94-b7ff-acb207059ac5"
       x1="612.82"
       y1="534.25"
       x2="612.82"
       y2="509.77"
       xlink:href="#85112d37-9806-4565-a0ea-8879143619cd" />
    <linearGradient
       id="f56efedd-ee8b-4d2e-8bf5-876fc33e5faf"
       x1="638.86"
       y1="531.3"
       x2="638.86"
       y2="507.86"
       xlink:href="#85112d37-9806-4565-a0ea-8879143619cd"
       gradientTransform="matrix(1.4657506,0,0,1.4657506,-361.55527,-453.46534)" />
    <linearGradient
       id="4176ab9b-a8a4-47bf-bcab-5d6531458a22"
       x1="647.52"
       y1="531.06"
       x2="647.52"
       y2="508.4"
       xlink:href="#85112d37-9806-4565-a0ea-8879143619cd" />
    <linearGradient
       inkscape:collect="always"
       xlink:href="#85112d37-9806-4565-a0ea-8879143619cd"
       id="linearGradient378"
       gradientUnits="userSpaceOnUse"
       x1="643.38"
       y1="527.87"
       x2="643.38"
       y2="439.13"
       gradientTransform="matrix(1.4657506,0,0,1.4657506,-361.55527,-453.46534)" />
  </defs>
  <title
     id="title45">setup wizard</title>
  <path
     d="m 745.76076,471.7165 c 4.58781,7.49001 31.46967,20.87231 31.46967,20.87231 0,0 0.23451,-30.03325 -4.39726,-37.52324 a 15.904067,15.904067 0 0 0 -27.10172,16.65093 z"
     id="path119"
     inkscape:connector-curvature="0"
     style="fill:#429442;stroke-width:1.46575069" />
  <rect
     x="320.89825"
     y="133.24535"
     width="84.412582"
     height="15.712848"
     id="rect123"
     style="opacity:0.1;stroke-width:1.46575069" />
  <rect
     x="320.89825"
     y="238.69148"
     width="124.99923"
     height="15.712848"
     id="rect125"
     style="opacity:0.1;stroke-width:1.46575069" />
  <rect
     x="248.43155"
     y="39.232101"
     width="523.99121"
     height="523.99121"
     id="rect143"
     style="opacity:0.1;fill:#429442;stroke-width:1.46575069" />
  <rect
     x="266.02057"
     y="14.314326"
     width="523.99121"
     height="523.99121"
     id="rect145"
     style="fill:#ffffff;stroke-width:1.46575069" />
  <rect
     x="318.63705"
     y="72.358093"
     width="421.84723"
     height="31.231287"
     id="rect147"
     style="opacity:0.5;fill:#429442;stroke-width:2.08539844" />
  <rect
     x="320.89825"
     y="170.44995"
     width="316.52454"
     height="31.231287"
     id="rect149"
     style="opacity:0.1;stroke-width:2.26373363" />
  <rect
     x="320.89825"
     y="272.97537"
     width="275.94226"
     height="34.16666"
     id="rect151"
     style="opacity:0.1;stroke-width:2.24435139" />
  <rect
     x="320.89825"
     y="344.15222"
     width="275.9267"
     height="104.16797"
     id="rect153"
     style="opacity:0.1;stroke-width:3.35636258" />
  <ellipse
     cx="490.79337"
     cy="770.72974"
     rx="104.66927"
     ry="17.559694"
     id="ellipse163"
     style="opacity:0.1;fill:#429442;stroke-width:1.46575069" />
  <path
     d="m 605.6057,300.82464 c -0.98206,-2.00808 -8.79453,-27.84926 -8.79453,-27.84926 l -15.05326,-38.21212 c 0,0 -9.13161,-50.28991 -22.7631,-37.7431 -13.63148,12.54683 7.32875,42.65336 7.32875,42.65336 0,0 8.60397,21.98624 8.16424,26.38352 -0.43973,4.39725 4.793,20.5205 4.793,20.5205 l -1.70027,9.26354 c -2.21329,-0.14658 -3.64972,-0.14658 -3.64972,-0.14658 0,0 -1.34847,1.9348 -2.63834,2.06671 a 1.2165731,1.2165731 0 0 1 -0.64494,-0.0881 c -1.46575,-0.6596 -6.31739,-0.52767 -8.7945,-0.52767 a 19.699689,19.699689 0 0 1 -6.58122,-2.11069 c -0.85013,-1.70028 -5.6578,-2.71163 -9.92314,-3.28328 -3.2393,-8.06163 -7.79781,-15.90337 -8.42806,-24.31681 a 10.509432,10.509432 0 0 1 1.28987,-6.6252 8.2814917,8.2814917 0 0 1 0.96739,-1.2019 c 1.18725,-1.20192 2.63836,-2.25726 3.95751,-3.37121 0.6596,-0.55701 1.26055,-1.12863 1.83219,-1.71494 11.18368,-10.84655 9.41014,-27.64408 -0.73287,-39.26746 -11.726,-13.44095 -64.6103,-42.3602 -80.61629,-17.58901 -2.22793,3.45916 -2.30123,7.46067 -2.9315,11.30094 a 47.109227,47.109227 0 0 1 -12.63477,24.91776 c -5.30601,5.64313 -12.26833,10.84655 -15.31708,17.23721 l -0.10252,-0.23451 a 17.075997,17.075997 0 0 0 -1.58298,4.39726 c -1.53906,7.78314 3.70833,15.27311 6.46396,22.85104 a 41.04102,41.04102 0 0 1 2.02272,7.94437 l 0.1759,-1.67094 a 51.623741,51.623741 0 0 1 0.6889,11.72601 c -19.20133,3.9282 -19.216,37.02485 -19.216,37.02485 0,0 -2.35987,13.19176 -1.96413,17.89683 0.39576,4.70504 0.39576,14.99462 0.39576,17.50105 0,2.50644 -2.3745,17.89682 -2.63834,19.74366 -0.33712,2.03739 -3.94287,11.79929 4.7637,13.99791 0.60095,0.16125 1.2459,0.29317 1.90547,0.41043 0.36643,7.90038 1.05535,24.47803 0.45437,28.14241 0,0 3.16605,22.25009 5.78973,27.84926 a 66.046727,66.046727 0 0 0 5.863,9.45409 10.260255,10.260255 0 0 1 -1.33381,3.82559 c -1.33386,1.94947 -0.64496,3.54714 1.59764,4.23604 q -0.10252,1.01137 -0.26383,2.28658 c -0.95275,8.58928 -2.38916,25.63595 0,34.2839 3.35656,11.84326 3.54712,15.78613 3.54712,15.78613 a 11.726007,11.726007 0 0 0 1.37781,5.52588 c 1.46575,1.97877 3.95751,20.32998 3.95751,23.2908 0,2.96081 6.71315,29.60815 4.7344,35.92553 -1.97877,6.3174 -0.39579,15.19984 -0.39579,15.19984 0,0 -1.18725,15.59559 -2.56503,18.95215 -1.37782,3.35657 -1.97877,57.44278 0.19055,71.45536 2.1693,14.01258 3.56175,25.6653 3.56175,25.6653 0,0 -1.46574,12.8253 -0.20521,14.65751 1.26056,1.83219 3.35657,12.44421 1.77358,13.03051 -1.58302,0.5863 -2.35985,4.93959 -2.35985,4.93959 a 43.430194,43.430194 0 0 0 2.69696,3.67901 14.892027,14.892027 0 0 1 -1.78821,-0.76217 c 0.63027,0.89411 1.56835,2.12534 2.71164,3.47383 l -1.06999,14.18846 a 2.3745163,2.3745163 0 0 0 1.75888,2.49178 19.699689,19.699689 0 0 0 19.61176,-5.55521 c 9.86451,-10.06968 13.19175,-8.67723 15.00928,-14.80406 0.17589,-0.6596 0.35179,-1.28989 0.48369,-1.90548 a 6.4053306,6.4053306 0 0 0 -9.07299,-7.18219 c 0.63027,-4.39725 1.12862,-9.21957 0.64493,-11.98982 -0.98204,-5.71645 -0.79148,-20.72575 -0.79148,-20.72575 l -1.37783,-71.82176 c 0,0 2.56507,-14.20313 5.52589,-19.72901 2.96081,-5.52588 2.56506,-24.91778 2.56506,-24.91778 l 3.35657,-63.56959 3.34192,-30.78076 c 0,0 3.15135,-10.65602 7.09423,1.18725 0,0 -2.16931,23.87709 -1.17261,29.60816 0.99673,5.73109 2.35986,33.55104 1.3778,39.67786 -0.98205,6.12685 -5.33532,39.6779 -2.56506,48.16458 2.77027,8.4867 5.71644,18.74695 5.13013,22.10352 -0.5863,3.35658 -2.56507,76.21903 -2.56507,76.21903 0,0 5.3207,14.01259 1.37781,18.5564 -3.94287,4.54386 -0.19056,22.7045 -0.19056,22.7045 0,0 0.46907,0.33712 1.28989,0.82081 l -0.11729,1.46576 -1.23123,16.32847 a 2.3891738,2.3891738 0 0 0 1.75891,2.49177 19.729004,19.729004 0 0 0 19.61175,-5.5552 c 9.8645,-10.06971 13.19174,-8.69189 15.00929,-14.80407 0.17589,-0.65959 0.35177,-1.30453 0.49833,-1.92014 a 6.4199882,6.4199882 0 0 0 -10.34817,-6.37601 1.3631483,1.3631483 0 0 1 -0.21986,0.19054 c -0.24922,0.21986 -0.51303,0.41043 -0.77687,0.60095 l -0.38107,0.24918 c 0.98204,-4.5145 2.41847,-12.20971 1.74423,-15.84476 -0.98206,-5.33532 0.98205,-21.51721 0.98205,-21.51721 0,0 5.73107,-19.34792 5.86302,-27.04311 0.13193,-7.6952 1.58299,-61.56153 1.58299,-61.56153 0,0 -0.19056,-25.06433 0.60096,-31.17653 0.7915,-6.11216 7.09422,-59.02577 13.41161,-74.75327 4.85166,-12.1071 7.02096,-42.96115 5.7311,-58.63004 -0.0734,-0.7915 -0.14658,-1.46573 -0.21987,-2.22794 7.72451,-5.80437 8.54533,-15.36106 8.54533,-15.36106 0,0 -7.10888,-13.69013 -13.95395,-19.47983 -6.84505,-5.78973 -8.42807,-15.78614 -8.16423,-20.0075 a 10.392173,10.392173 0 0 0 -2.35988,-7.09423 c 0,0 -3.16601,-10.26024 -5.27668,-11.3156 a 1.4657506,1.4657506 0 0 1 -0.45438,-0.35177 c -1.46573,-1.55369 -0.33714,-5.96563 -0.33714,-5.96563 v -0.13195 c 0.23454,-1.026 1.77356,-7.6512 1.27522,-9.35149 -0.49837,-1.70027 0.26383,-10.52407 0.26383,-10.52407 0,0 5.01287,-14.99463 4.22136,-26.83791 -0.7915,-11.84325 10.26027,-10.80258 10.26027,-10.80258 l 34.13731,-0.35179 h 3.88423 a 28.611455,28.611455 0 0 0 4.39727,-4.70506 9.4101197,9.4101197 0 0 0 7.54862,-1.84682 c 7.24081,-6.62521 6.3467,-19.27463 5.36465,-21.31203 z m -158.75547,102.60255 0.24917,-6.00957 1.33384,1.14329 a 9.6153248,9.6153248 0 0 1 0,4.80763 5.1301275,5.1301275 0 0 1 -2.93151,3.34193 3.2686241,3.2686241 0 0 0 -0.48369,0.29315 l -0.33713,-3.42987 c 1.39247,-0.088 2.16932,-0.16121 2.16932,-0.16121 z"
     id="path191"
     inkscape:connector-curvature="0"
     style="opacity:0.1;stroke-width:1.46575069" />
  <path
     d="m 574.91286,312.47736 c 0,0 19.43585,12.50285 26.79393,5.86298 7.35807,-6.63984 6.4493,-19.45048 5.4526,-21.47323 -0.99671,-2.02274 -8.91177,-28.03981 -8.91177,-28.03981 l -15.28778,-38.51994 c 0,0 -9.29286,-50.70031 -23.15885,-38.1095 -13.86601,12.5908 7.47531,42.99046 7.47531,42.99046 0,0 8.7945,22.1768 8.29616,26.61804 -0.49836,4.44121 4.86628,20.71105 4.86628,20.71105 z"
     id="path193"
     style="fill:url(#linearGradient378);stroke-width:1.46575069"
     inkscape:connector-curvature="0" />
  <path
     d="m 538.66485,764.17775 c -0.14657,0.63027 -0.30781,1.27521 -0.51302,1.93481 -1.80287,6.1708 -5.21807,4.77834 -15.24378,14.92132 a 20.124757,20.124757 0 0 1 -19.93424,5.59917 2.4038314,2.4038314 0 0 1 -1.78822,-2.50643 l 1.26057,-16.46038 0.60094,-7.92971 c 0,0 15.96205,4.48521 24.09696,-1.18725 0.26381,-0.19056 0.52765,-0.38111 0.77683,-0.60096 l 0.23453,-0.19055 a 6.5225908,6.5225908 0 0 1 10.50943,6.41998 z"
     id="path195"
     style="fill:url(#df208e3c-a3f5-4fc2-8354-a8814a1a7545);stroke-width:1.46575069"
     inkscape:connector-curvature="0" />
  <path
     d="m 488.58017,757.96296 c -0.13198,0.6303 -0.30782,1.27521 -0.49838,1.9348 -1.80288,6.17082 -5.21809,4.77835 -15.24381,14.92135 a 20.183387,20.183387 0 0 1 -19.9342,5.61382 2.3891738,2.3891738 0 0 1 -1.78823,-2.52108 l 1.2459,-16.46037 0.61561,-7.92975 c 0,0 15.96203,4.48522 24.08229,-1.18725 0.27849,-0.19055 0.52766,-0.38108 0.7915,-0.60096 l 0.23452,-0.19054 a 6.5079331,6.5079331 0 0 1 10.4948,6.41998 z"
     id="path197"
     style="fill:url(#f31dc2d4-0d93-40f6-a24d-a9bceb1557a5);stroke-width:1.46575069"
     inkscape:connector-curvature="0" />
  <g
     id="g201"
     transform="matrix(1.4657506,0,0,1.4657506,-260.41847,-376.0444)"
     style="opacity:0.1">
    <path
       d="m 568.72,828.18 0.45,5.83 c -6.26,6.2 -13.7,-3 -15.9,-6.06 5.73,2.94 15.45,0.23 15.45,0.23 z"
       transform="translate(-69,-52.82)"
       id="path199"
       style="fill:url(#f0ebc0e0-65f1-47cb-b776-261c995964f9)"
       inkscape:connector-curvature="0" />
  </g>
  <g
     id="g205"
     transform="matrix(1.4657506,0,0,1.4657506,-260.41847,-376.0444)"
     style="opacity:0.1">
    <path
       d="m 605.47,830.55 0.83,-0.54 c -5.72,8.62 -14.2,4.64 -16.84,3.1 l 0.41,-5.41 c 0,0 10.89,3.06 16.44,-0.81 -0.44,2.11 -0.84,3.66 -0.84,3.66 z"
       transform="translate(-69,-52.82)"
       id="path203"
       style="fill:url(#93f025d2-5adc-499b-9d9a-f633acaed05b)"
       inkscape:connector-curvature="0" />
  </g>
  <path
     d="m 551.40221,524.9086 c -6.41997,15.91806 -12.83996,69.25673 -13.64612,75.42754 -0.80615,6.1708 -0.60097,31.44035 -0.60097,31.44035 l -1.67094,62.0892 c -0.19055,7.76848 -6.00958,27.26297 -6.00958,27.26297 0,0 -2.00808,16.32846 -1.01139,21.6931 0.99674,5.36464 -2.60902,19.50914 -2.60902,19.50914 l 1.21657,-0.7915 c -10.04038,15.1119 -25.88517,3.76698 -25.88517,3.76698 0,0 -3.81094,-18.30722 0.19057,-22.88035 4.00148,-4.57316 -1.39247,-18.70299 -1.39247,-18.70299 0,0 1.99342,-73.43412 2.60905,-76.82 0.61559,-3.38587 -2.28658,-13.73408 -5.21809,-22.29407 -2.93151,-8.55999 1.59768,-42.38951 2.60904,-48.56031 1.01137,-6.17083 -0.41041,-34.2253 -1.46574,-40.00035 -1.05536,-5.77506 1.2019,-29.85733 1.2019,-29.85733 -4.01616,-11.93123 -7.22615,-1.18727 -7.22615,-1.18727 l -3.20999,31.24982 -3.29792,64.15591 c 0,0 0.41039,19.49449 -2.60907,25.06432 -3.01944,5.56985 -5.6138,19.90487 -5.6138,19.90487 l 1.46574,72.43742 c 0,0 -0.20519,15.12654 0.80617,20.90161 1.01135,5.77507 -2.21331,20.6964 -2.21331,20.6964 -11.22764,26.26626 -29.31501,-2.18397 -29.31501,-2.18397 0,0 0.79152,-4.39727 2.40386,-4.98355 1.6123,-0.58629 -0.60097,-11.3449 -1.80289,-13.19175 -1.20192,-1.84686 0.19055,-14.6575 0.19055,-14.6575 0,0 -1.39247,-11.72603 -3.60575,-25.88516 -2.21328,-14.15915 -1.59765,-68.65579 -0.20519,-72.04166 1.39244,-3.38588 2.60902,-19.05476 2.60902,-19.05476 0,0 -1.59767,-8.95573 0.4104,-15.33174 2.00809,-6.37602 -4.82231,-33.22857 -4.82231,-36.2187 0,-2.99015 -2.60904,-21.48792 -4.01615,-23.45203 a 11.726007,11.726007 0 0 1 -1.46574,-5.56984 c 0,0 -0.20522,-3.98686 -3.62043,-15.91805 -2.49175,-8.79451 -1.02602,-25.91448 0,-34.56243 0.3518,-3.20997 0.64494,-5.24737 0.64494,-5.24737 0,0 115.16404,-18.51242 119.78114,-14.32037 1.08466,0.9674 1.80289,4.39725 2.21329,9.17558 1.30453,15.62491 -0.90876,46.7428 -5.81904,58.93784 z"
     id="path207"
     style="fill:url(#7be7b514-f490-43c2-8f6f-9e415e928302);stroke-width:1.46575069"
     inkscape:connector-curvature="0" />
  <g
     id="g211"
     transform="matrix(1.4657506,0,0,1.4657506,-260.41847,-376.0444)"
     style="opacity:0.1">
    <path
       d="m 593.15,728.54 c 0.37,0 9,0.73 12.23,0.09 3.23,-0.64 -12.23,-0.09 -12.23,-0.09 z"
       transform="translate(-69,-52.82)"
       id="path209"
       style="fill:url(#33a20f31-fcc2-4a92-ab49-195e19cfaaaa)"
       inkscape:connector-curvature="0" />
  </g>
  <g
     id="g215"
     transform="matrix(1.4657506,0,0,1.4657506,-260.41847,-376.0444)"
     style="opacity:0.1">
    <path
       d="m 593.79,733.61 c 0,0 12,2.08 12.6,1 0.6,-1.08 -12.6,-1 -12.6,-1 z"
       transform="translate(-69,-52.82)"
       id="path213"
       style="fill:url(#de6a0646-a91b-46a0-9afb-f46952816772)"
       inkscape:connector-curvature="0" />
  </g>
  <g
     id="g219"
     transform="matrix(1.4657506,0,0,1.4657506,-260.41847,-376.0444)"
     style="opacity:0.1">
    <path
       d="m 557.2,731.44 c 0,0 6.2,0.27 9.58,1.81 3.38,1.54 -9.58,-1.81 -9.58,-1.81 z"
       transform="translate(-69,-52.82)"
       id="path217"
       style="fill:url(#04d37134-577c-4403-8fe6-8ed7eba6d70a)"
       inkscape:connector-curvature="0" />
  </g>
  <path
     d="m 422.12301,395.4828 c 0,0 1.46574,27.73204 0.67425,32.62763 0,0 3.21,22.42599 5.863,28.12775 a 80.792181,80.792181 0 0 0 8.42805,12.86928 l 7.88576,-55.05358 -1.83219,-18.84955 z"
     id="path221"
     style="fill:url(#8776c570-d85f-4376-8246-d2602742eda7);stroke-width:1.46575069"
     inkscape:connector-curvature="0" />
  <ellipse
     cx="505.05505"
     cy="238.51555"
     rx="30.898024"
     ry="30.648848"
     id="ellipse223"
     style="fill:url(#6e2a29df-8464-4633-8e1b-f9ea2b2d5fc1);stroke-width:1.46575069" />
  <path
     d="m 489.00523,252.85062 c 0,0 -9.63,18.70297 -19.25999,27.46817 -9.62997,8.76519 57.77989,18.70296 59.37757,18.70296 1.59768,0 -12.0338,-39.79511 -9.62997,-44.57347 2.40383,-4.77834 -30.48761,-1.59766 -30.48761,-1.59766 z"
     id="path225"
     style="fill:url(#e33e2ef7-473f-4cd6-b28c-ecb98abedfac);stroke-width:1.46575069"
     inkscape:connector-curvature="0" />
  <g
     id="g229"
     transform="matrix(1.4657506,0,0,1.4657506,-260.41847,-376.0444)"
     style="opacity:0.1">
    <path
       d="m 626.83,627.18 a 13.66,13.66 0 0 1 -3.38,1.88 c -8.39,3.26 -17.52,7.79 -23.73,6 -6.21,-1.79 -19.34,0 -19.34,0 0,0 -26.47,-2.18 -31.76,-0.91 a 10.26,10.26 0 0 1 -5.46,0.14 c 0.24,-2.19 0.44,-3.58 0.44,-3.58 0,0 78.57,-12.63 81.72,-9.77 0.74,0.64 1.23,2.95 1.51,6.24 z"
       transform="translate(-69,-52.82)"
       id="path227"
       style="fill:url(#f5b9f2bb-2c0e-46fc-9c28-4202a4412ecd)"
       inkscape:connector-curvature="0" />
  </g>
  <path
     d="m 565.64932,448.14725 c 0,0 -1.07,13.19175 -13.38231,18.04339 -12.31229,4.85161 -25.67995,11.41818 -34.78224,8.7945 -9.10233,-2.6237 -28.34764,0 -28.34764,0 0,0 -38.79841,-3.19534 -46.55224,-1.33382 -7.75382,1.86148 -11.72601,-0.5277 -9.36614,-3.98686 2.35985,-3.45917 2.15463,-14.84805 2.15463,-19.62638 0,-4.77838 -2.6823,-24.15559 -0.27847,-27.60009 2.40383,-3.44453 4.54383,-16.70958 9.36616,-18.83491 a 5.2034151,5.2034151 0 0 0 3.00476,-3.37123 9.4834073,9.4834073 0 0 0 0,-4.85164 c 0,0 -0.80614,-0.65959 -1.93477,-1.6563 -2.82892,-2.50641 -7.63657,-7.16751 -6.09753,-8.69189 2.13999,-2.12535 0,-15.93272 0,-15.93272 0,0 -5.08616,-10.61203 -3.21,-14.58423 1.87616,-3.97218 -16.31379,-24.91774 -16.31379,-24.91774 0,0 0,-36.08679 21.98625,-37.68446 0,0 15.50764,0.54232 17.38379,-6.36135 1.87617,-6.9037 14.1738,-10.89054 14.1738,-10.89054 l 28.08383,6.11218 c 0,0 24.91772,5.30601 29.43225,2.12534 4.51452,-3.18068 8.03232,4.23602 8.03232,4.23602 0,0 15.50763,0.80617 17.11997,3.98685 1.61232,3.18069 -5.08617,34.22528 -5.08617,34.22528 0,0 -11.24231,-1.05534 -10.43613,10.89052 0.80616,11.94587 -4.28001,27.05777 -4.28001,27.05777 0,0 -0.80616,8.79451 -0.26384,10.61203 0.54234,1.81753 -1.05533,8.38409 -1.3045,9.42479 v 0.13195 c 0,0 -1.11397,4.39725 0.33712,6.02422 a 2.1839684,2.1839684 0 0 0 0.46903,0.35179 c 2.13999,1.05534 5.35,11.40353 5.35,11.40353 a 10.450803,10.450803 0 0 1 2.41848,7.16753 c -0.26384,4.25069 1.33383,14.32036 8.28148,20.16873 6.94768,5.84835 14.04191,19.56776 14.04191,19.56776 z"
     id="path231"
     style="fill:url(#f29e8a79-8a58-4993-a70a-b992b7a832bd);stroke-width:1.46575069"
     inkscape:connector-curvature="0" />
  <path
     d="m 446.32253,386.71763 v 1.12862 l -0.49833,12.41492 c 0,0 -16.44573,1.31918 -25.41613,-0.93808 -8.97039,-2.25727 -5.17409,-12.06315 -4.82231,-14.11518 0,0 0,0 0,0 0.26384,-1.8615 2.66767,-17.38381 2.66767,-19.9049 0,-2.52109 0,-12.8693 -0.39575,-17.58901 -0.39575,-4.71973 2.00808,-18.0434 2.00808,-18.0434 l 1.72956,-2.12532 18.86424,7.1675 z"
     id="path233"
     style="fill:url(#c04eac17-4773-4368-bae0-7265c9e76607);stroke-width:1.46575069"
     inkscape:connector-curvature="0" />
  <g
     id="g237"
     transform="matrix(1.4657506,0,0,1.4657506,-260.41847,-376.0444)"
     style="opacity:0.1">
    <path
       d="m 551.15,574 -0.34,8.47 c 0,0 -11.22,0.9 -17.34,-0.64 -6.12,-1.54 -3.53,-8.23 -3.29,-9.63 z"
       transform="translate(-69,-52.82)"
       id="path235"
       style="fill:url(#3c970590-dd1c-4631-9f7e-f9b23acb9d2d)"
       inkscape:connector-curvature="0" />
  </g>
  <g
     id="g241"
     transform="matrix(1.4657506,0,0,1.4657506,-260.41847,-376.0444)"
     style="opacity:0.1">
    <path
       d="m 552,582.41 a 6.47,6.47 0 0 0 0,-3.31 c 0,0 -0.55,-0.45 -1.32,-1.13 9.67,-1.33 47.94,-6.55 60.84,-7.11 v 0.09 c 0,0 -0.76,3 0.23,4.11 z"
       transform="translate(-69,-52.82)"
       id="path239"
       style="fill:url(#cab065ab-ef79-48f8-9c0a-09d4e188359a)"
       inkscape:connector-curvature="0" />
  </g>
  <g
     id="g245"
     transform="matrix(1.4657506,0,0,1.4657506,-260.41847,-376.0444)"
     style="opacity:0.1">
    <path
       d="m 612.87,589 c 0,0 2.37,13.31 -6.48,18 0,0 5.02,-6.63 6.48,-18 z"
       transform="translate(-69,-52.82)"
       id="path243"
       style="fill:url(#d718cee3-9c00-4171-a05a-14de0f48f667)"
       inkscape:connector-curvature="0" />
  </g>
  <g
     id="g249"
     transform="matrix(1.4657506,0,0,1.4657506,-260.41847,-376.0444)"
     style="opacity:0.1">
    <path
       d="m 554.92,607.34 c 0,0 21.35,-3.62 25.55,-0.82 4.2,2.8 -25.55,0.82 -25.55,0.82 z"
       transform="translate(-69,-52.82)"
       id="path247"
       style="fill:url(#8f995e39-4892-4832-8cdc-33159eeee44f)"
       inkscape:connector-curvature="0" />
  </g>
  <g
     id="g253"
     transform="matrix(1.4657506,0,0,1.4657506,-260.41847,-376.0444)"
     style="opacity:0.1">
    <path
       d="m 605.47,524.88 c 0,0 -3.28,13.39 -0.82,16.47 2.46,3.08 0.82,-16.47 0.82,-16.47 z"
       transform="translate(-69,-52.82)"
       id="path251"
       style="fill:url(#ba1bc673-7a43-4daf-b3ca-7287eecc4ed3)"
       inkscape:connector-curvature="0" />
  </g>
  <g
     id="g257"
     transform="matrix(1.4657506,0,0,1.4657506,-260.41847,-376.0444)"
     style="opacity:0.1">
    <path
       d="m 543.6,513.92 c 0,0 3,5 1.19,10.14 -1.81,5.14 -1.19,-10.14 -1.19,-10.14 z"
       transform="translate(-69,-52.82)"
       id="path255"
       style="fill:url(#d005e3fc-d6fe-48e9-9aec-3eb63feaa3ce)"
       inkscape:connector-curvature="0" />
  </g>
  <path
     d="m 426.13917,363.76396 c 0,0 5.61382,3.32727 3.73765,8.50136 -1.87616,5.17411 -3.73765,-8.50136 -3.73765,-8.50136 z"
     id="path259"
     style="fill:url(#8f44d692-9086-4f84-9d84-a3a660414f29);stroke-width:1.46575069"
     inkscape:connector-curvature="0" />
  <g
     id="g263"
     transform="matrix(1.4657506,0,0,1.4657506,-260.41847,-376.0444)"
     style="opacity:0.1">
    <path
       d="m 537,547.23 c 0,0 3.56,1.91 4,4.71 0.44,2.8 -4,-4.71 -4,-4.71 z"
       transform="translate(-69,-52.82)"
       id="path261"
       style="fill:url(#34b8f87b-81de-41c4-ae6e-1a72ec4cce6a)"
       inkscape:connector-curvature="0" />
  </g>
  <g
     id="g267"
     transform="matrix(1.4657506,0,0,1.4657506,-260.41847,-376.0444)"
     style="opacity:0.1">
    <path
       d="m 589.78,655.49 c 0,0 22.36,2.27 26.83,-3 0,0.02 -20.17,4 -26.83,3 z"
       transform="translate(-69,-52.82)"
       id="path265"
       style="fill:url(#aa860263-0dba-4287-a003-5e39ffdf9739)"
       inkscape:connector-curvature="0" />
  </g>
  <g
     id="g271"
     transform="matrix(1.4657506,0,0,1.4657506,-260.41847,-376.0444)"
     style="opacity:0.1">
    <path
       d="m 551.18,654.23 c 0,0 24,5.61 28.74,1.17 0,0 -20.62,1.54 -28.74,-1.17 z"
       transform="translate(-69,-52.82)"
       id="path269"
       style="fill:url(#b0bcbe2d-d614-49a6-948e-a79a535d5283)"
       inkscape:connector-curvature="0" />
  </g>
  <g
     id="g275"
     transform="matrix(1.4657506,0,0,1.4657506,-260.41847,-376.0444)"
     style="opacity:0.1">
    <path
       d="m 591.51,662.83 c 0,0 10,0 14.69,0.27 4.69,0.27 -14.69,-0.27 -14.69,-0.27 z"
       transform="translate(-69,-52.82)"
       id="path273"
       style="fill:url(#1ff6b976-6854-4bdb-b047-1feedf56385b)"
       inkscape:connector-curvature="0" />
  </g>
  <g
     id="g279"
     transform="matrix(1.4657506,0,0,1.4657506,-260.41847,-376.0444)"
     style="opacity:0.1">
    <path
       d="m 552.82,667.08 c 0,0 4.93,5.52 10.49,4.53 5.56,-0.99 -10.49,-4.53 -10.49,-4.53 z"
       transform="translate(-69,-52.82)"
       id="path277"
       style="fill:url(#4cf659f5-9d55-4c93-bc8b-15c9a9403b0a)"
       inkscape:connector-curvature="0" />
  </g>
  <path
     d="m 462.92951,192.93072 c -2.27191,3.48849 -2.34521,7.5193 -2.9315,11.38889 a 47.373062,47.373062 0 0 1 -12.83997,25.19626 c -6.41998,6.77178 -15.22916,12.8986 -16.88546,21.16544 -1.56835,7.85643 3.76697,15.40504 6.56658,23.04159 7.32874,20.15408 -2.9315,41.27555 -5.93631,62.07454 -0.82082,5.74577 0.17589,13.08917 7.32876,14.99464 2.22795,0.60097 4.77835,0.52767 6.77176,1.46575 2.69699,1.27521 3.51779,3.9282 4.01616,6.31739 a 96.25585,96.25585 0 0 1 1.83221,25.98777 c -0.3225,4.89557 -0.67424,10.50942 3.97218,13.866 a 23.642559,23.642559 0 0 0 7.70983,3.04876 c 7.32875,1.96409 16.81216,3.53244 21.75174,-1.05535 2.08138,-1.92013 2.93151,-4.64643 5.43794,-6.17081 3.86959,-2.2719 9.36615,-0.73287 14.24711,-0.49836 a 25.870501,25.870501 0 0 0 23.17352,-12.34162 c 3.94285,-7.05026 3.60575,-15.08257 2.14,-22.67514 -1.46576,-7.5926 -3.98686,-15.09725 -4.1774,-22.77779 a 13.191758,13.191758 0 0 1 1.72957,-7.72451 c 2.93152,-4.57313 9.92316,-6.65451 14.65751,-10.26027 8.88246,-6.74243 8.79451,-17.7942 5.62849,-27.04308 -3.16603,-9.24888 -9.02903,-18.08736 -9.74723,-27.64407 a 10.494775,10.494775 0 0 1 1.31917,-6.68381 26.061048,26.061048 0 0 1 5.39395,-5.01286 c 12.9719,-10.86123 11.44753,-28.71407 0.71823,-40.92376 -11.90189,-13.58754 -65.68029,-42.75597 -81.87684,-17.7356 z"
     id="path281"
     style="fill:url(#ddaf5e28-e506-4c9e-ad2d-295c8c59bc2c);stroke-width:1.46575069"
     inkscape:connector-curvature="0" />
  <g
     id="g293"
     transform="matrix(1.4657506,0,0,1.4657506,-260.41847,-376.0444)"
     style="opacity:0.1">
    <path
       d="m 545.82,501.81 a 34.07,34.07 0 0 0 -1.39,-16.32 c -1,-2.63 -2.37,-5.25 -3.38,-7.88 a 11.19,11.19 0 0 0 -1.1,3 c -1.08,5.35 2.57,10.5 4.48,15.72 a 28.42,28.42 0 0 1 1.39,5.48 z"
       transform="translate(-69,-52.82)"
       id="path283"
       style="fill:url(#ba62206a-581b-4ba2-9912-7589baa777ba)"
       inkscape:connector-curvature="0" />
    <path
       d="m 554,561.11 a 65.3,65.3 0 0 0 -1.26,-17.73 c -0.34,-1.63 -0.9,-3.44 -2.73,-4.31 -1.37,-0.65 -3.11,-0.6 -4.63,-1 a 6.31,6.31 0 0 1 -4.26,-3.5 c -0.27,1.38 -0.52,2.76 -0.72,4.13 -0.57,3.92 0.11,8.93 5,10.23 1.52,0.41 3.26,0.36 4.63,1 1.83,0.87 2.39,2.68 2.73,4.31 a 65.14,65.14 0 0 1 1.18,8.19 C 553.92,562 554,561.55 554,561.11 Z"
       transform="translate(-69,-52.82)"
       id="path285"
       style="fill:url(#1d302a68-2b53-4616-82c0-9d32bf7b435e)"
       inkscape:connector-curvature="0" />
    <path
       d="m 606,559 a 17.64,17.64 0 0 1 -15.8,8.42 c -3.33,-0.16 -7.08,-1.21 -9.72,0.34 -1.76,1 -2.3,2.9 -3.71,4.21 -3.37,3.13 -9.84,2.06 -14.84,0.72 a 16,16 0 0 1 -5.26,-2.08 6.46,6.46 0 0 1 -2.59,-4.18 c 0,1.86 0,3.73 -0.12,5.59 -0.22,3.33 -0.46,7.16 2.71,9.45 a 16,16 0 0 0 5.26,2.08 c 5,1.35 11.47,2.41 14.84,-0.72 1.41,-1.31 2,-3.16 3.71,-4.2 2.64,-1.56 6.39,-0.51 9.72,-0.34 a 17.62,17.62 0 0 0 15.8,-8.43 c 2.59,-4.62 2.48,-9.86 1.58,-14.86 a 16.18,16.18 0 0 1 -1.58,4 z"
       transform="translate(-69,-52.82)"
       id="path287"
       style="fill:url(#0da18ff1-7e19-420b-8354-a9457e98fcb1)"
       inkscape:connector-curvature="0" />
    <path
       d="m 617.59,470.4 a 17.84,17.84 0 0 0 -3.69,3.42 7.17,7.17 0 0 0 -0.89,4.56 23.57,23.57 0 0 0 1.25,5.81 25,25 0 0 1 3.33,-2.93 c 6,-5 7.44,-12.2 5.5,-18.91 a 17.37,17.37 0 0 1 -5.5,8.05 z"
       transform="translate(-69,-52.82)"
       id="path289"
       style="fill:url(#86e6b7f7-4a58-4701-a141-596d9c5da905)"
       inkscape:connector-curvature="0" />
    <path
       d="m 615.82,515.69 c -3.24,2.45 -8,3.87 -10,7 a 8.93,8.93 0 0 0 -1.18,5.27 36.29,36.29 0 0 0 0.78,6.3 7.14,7.14 0 0 1 0.4,-0.71 c 2,-3.11 6.76,-4.54 10,-7 5.53,-4.2 6,-10.85 4.36,-16.78 a 12.67,12.67 0 0 1 -4.36,5.92 z"
       transform="translate(-69,-52.82)"
       id="path291"
       style="fill:url(#3a8eff62-0f79-4f94-b7ff-acb207059ac5)"
       inkscape:connector-curvature="0" />
  </g>
  <path
     d="m 602.16117,305.6616 c -5.4819,13.79273 -12.57614,19.23067 -12.57614,19.23067 h -3.94288 l -34.70896,0.35177 -4.01616,-10.87588 5.62847,-23.45199 3.45916,0.21985 a 20.080785,20.080785 0 0 0 6.68385,2.12535 c 2.53574,0 7.48997,-0.13195 8.95573,0.52766 a 1.1579431,1.1579431 0 0 0 0.65961,0.0881 c 1.3045,-0.13194 2.69696,-2.08137 2.69696,-2.08137 0,0 32.64227,0.0586 27.16036,13.86599 z"
     id="path295"
     style="fill:url(#f56efedd-ee8b-4d2e-8bf5-876fc33e5faf);stroke-width:1.46575069"
     inkscape:connector-curvature="0" />
  <g
     id="g299"
     transform="matrix(1.4657506,0,0,1.4657506,-260.41847,-376.0444)"
     style="opacity:0.1">
    <path
       d="m 657.49,517.91 c -3.74,9.41 -8.58,13.12 -8.58,13.12 h -2.69 c 1.4,-3.73 4.36,-11.39 5.52,-13.15 1.16,-1.76 -8.81,-5.84 -14.61,-8.09 0.89,-0.09 1.84,-1.42 1.84,-1.42 0,0 22.26,0.12 18.52,9.54 z"
       transform="translate(-69,-52.82)"
       id="path297"
       style="fill:url(#4176ab9b-a8a4-47bf-bcab-5d6531458a22)"
       inkscape:connector-curvature="0" />
  </g>
  <path
     d="m 573.88685,316.34693 c 0,0 19.05475,12.40026 26.3835,5.77506 7.32875,-6.62519 6.34669,-19.28928 5.36465,-21.29735 -0.98203,-2.00808 -8.79451,-27.84926 -8.79451,-27.84926 l -15.05326,-38.21212 c 0,0 -9.13163,-50.28991 -22.76311,-37.7431 -13.63149,12.54683 7.32876,42.65336 7.32876,42.65336 0,0 8.60396,21.98624 8.16422,26.38352 -0.4397,4.39725 4.79302,20.5205 4.79302,20.5205 z"
     id="path301"
     inkscape:connector-curvature="0"
     style="fill:#efb7b9;stroke-width:1.46575069" />
  <path
     d="m 538.22512,764.3683 c -0.14656,0.61562 -0.32244,1.26053 -0.49835,1.92015 -1.7882,6.11217 -5.14477,4.73437 -15.00928,14.80406 a 19.729004,19.729004 0 0 1 -19.61176,5.5552 2.3891738,2.3891738 0 0 1 -1.75889,-2.49176 l 1.23122,-16.32849 0.60096,-7.85641 c 0,0 15.71285,4.39725 23.70119,-1.18725 0.26385,-0.19054 0.52766,-0.38109 0.77686,-0.60096 a 1.3631483,1.3631483 0 0 0 0.21986,-0.19056 6.4199882,6.4199882 0 0 1 10.34819,6.37602 z"
     id="path303"
     inkscape:connector-curvature="0"
     style="fill:#429442;stroke-width:1.46575069" />
  <path
     d="m 488.90261,758.21216 c -0.13195,0.61561 -0.3078,1.24589 -0.48369,1.90546 -1.78822,6.12683 -5.14479,4.73438 -15.00928,14.80408 a 19.699689,19.699689 0 0 1 -19.61176,5.5552 2.3745163,2.3745163 0 0 1 -1.75889,-2.49178 l 1.23123,-16.32845 0.60096,-7.85644 c 0,0 15.71285,4.39726 23.70119,-1.18725 a 8.9997093,8.9997093 0 0 0 0.77684,-0.58628 l 0.21987,-0.20524 a 6.4199882,6.4199882 0 0 1 10.33353,6.3907 z"
     id="path305"
     inkscape:connector-curvature="0"
     style="fill:#429442;stroke-width:1.46575069" />
  <path
     d="m 472.67675,760.65995 0.64493,8.48669 c -9.01438,8.99972 -19.75833,-4.39725 -22.92433,-8.79449 8.29614,4.22134 22.2794,0.3078 22.2794,0.3078 z"
     id="path307"
     inkscape:connector-curvature="0"
     style="opacity:0.1;stroke-width:1.46575069" />
  <path
     d="m 525.6783,764.10446 1.18726,-0.77683 c -8.23751,12.51749 -20.52051,6.74245 -24.2875,4.49983 l 0.60096,-7.85641 c 0,0 15.71285,4.39725 23.70119,-1.18725 -0.63026,3.0634 -1.20191,5.32066 -1.20191,5.32066 z"
     id="path309"
     inkscape:connector-curvature="0"
     style="opacity:0.1;stroke-width:1.46575069" />
  <path
     d="m 550.74263,527.12188 c -6.31737,15.78615 -12.63476,68.68509 -13.41162,74.7533 -0.77684,6.06822 -0.60095,31.17652 -0.60095,31.17652 l -1.58301,61.56152 c -0.19054,7.6952 -5.86299,27.04309 -5.86299,27.04309 0,0 -1.96411,16.12327 -0.98205,21.51724 0.98205,5.39396 -2.56507,19.3479 -2.56507,19.3479 l 1.18724,-0.79149 c -9.86448,14.99461 -25.46009,3.7523 -25.46009,3.7523 0,0 -3.75233,-18.16064 0.19056,-22.70446 3.94287,-4.54383 -1.37782,-18.55641 -1.37782,-18.55641 0,0 1.97876,-72.83317 2.56507,-76.21904 0.5863,-3.38589 -2.37451,-13.61682 -5.13014,-22.10352 -2.75561,-8.48671 1.58303,-42.05239 2.56507,-48.16457 0.98207,-6.11219 -0.39575,-33.96144 -1.3778,-39.67787 -0.98207,-5.71642 1.17261,-29.60816 1.17261,-29.60816 -3.94287,-11.84328 -7.09423,-1.18726 -7.09423,-1.18726 l -3.16603,30.98597 -3.4152,63.62824 c 0,0 0.39574,19.33324 -2.56508,24.91776 -2.96081,5.58451 -5.51122,19.67037 -5.51122,19.67037 l 1.37782,71.82179 c 0,0 -0.19054,15.00929 0.7915,20.72571 0.98206,5.71643 -2.16932,20.52052 -2.16932,20.52052 -11.05176,26.04638 -28.81664,-2.1693 -28.81664,-2.1693 0,0 0.79149,-4.39726 2.35986,-4.93959 1.56835,-0.54235 -0.5863,-11.25695 -1.77355,-13.03052 -1.18726,-1.77358 0.20518,-14.65751 0.20518,-14.65751 0,0 -1.46573,-11.65273 -3.56176,-25.66531 -2.09603,-14.01259 -1.56835,-68.09877 -0.19054,-71.45534 1.3778,-3.35657 2.56505,-18.95216 2.56505,-18.95216 0,0 -1.58301,-8.88244 0.39576,-15.19983 1.97874,-6.31741 -4.73438,-32.96474 -4.73438,-35.92555 0,-2.96083 -2.56505,-21.31201 -3.95754,-23.29077 a 11.726007,11.726007 0 0 1 -1.37779,-5.5259 c 0,0 -0.19053,-3.94287 -3.54711,-15.78613 -2.44781,-8.64793 -1.01136,-25.69462 0,-34.28392 0.35177,-3.18067 0.64492,-5.20341 0.64492,-5.20341 0,0 113.30253,-18.35121 117.84637,-14.20311 1.05534,0.9674 1.77354,4.39724 2.1693,9.1023 1.21658,15.74216 -0.95274,46.59622 -5.80438,58.7766 z"
     id="path311"
     inkscape:connector-curvature="0"
     style="fill:#444053;stroke-width:1.46575069" />
  <path
     d="m 507.91339,615.7998 c 0.52769,0 13.03054,1.05536 17.58902,0.13196 4.55848,-0.92344 -17.58902,-0.13196 -17.58902,-0.13196 z"
     id="path313"
     inkscape:connector-curvature="0"
     style="opacity:0.1;stroke-width:1.46575069" />
  <path
     d="m 508.83682,623.17255 c 0,0 17.23724,3.0341 18.16066,1.46573 0.92341,-1.56834 -18.16066,-1.46573 -18.16066,-1.46573 z"
     id="path315"
     inkscape:connector-curvature="0"
     style="opacity:0.1;stroke-width:1.46575069" />
  <path
     d="m 456.0698,620.02117 c 0,0 8.94109,0.39575 13.80736,2.62369 4.86632,2.22795 -13.80736,-2.62369 -13.80736,-2.62369 z"
     id="path317"
     inkscape:connector-curvature="0"
     style="opacity:0.1;stroke-width:1.46575069" />
  <path
     d="m 423.55945,398.67816 c 0,0 1.46576,27.49747 0.65958,32.36376 0,0 3.16602,22.25011 5.78971,27.84929 a 80.718894,80.718894 0 0 0 8.29616,12.76669 l 7.76848,-54.55525 -1.8322,-18.68832 z"
     id="path319"
     inkscape:connector-curvature="0"
     style="fill:#efb7b9;stroke-width:1.46575069" />
  <circle
     cx="505.15778"
     cy="243.00082"
     r="30.399668"
     id="circle321"
     style="fill:#efb7b9;stroke-width:1.46575069" />
  <path
     d="m 489.35699,257.21854 c 0,0 -9.46873,18.54177 -18.95214,27.23366 -9.48342,8.69191 56.85647,18.55642 58.43945,18.55642 1.58304,0 -11.84325,-39.48734 -9.48338,-44.22171 2.35984,-4.73439 -30.00393,-1.56837 -30.00393,-1.56837 z"
     id="path323"
     inkscape:connector-curvature="0"
     style="fill:#efb7b9;stroke-width:1.46575069" />
  <path
     d="m 556.47372,468.49187 a 19.860923,19.860923 0 0 1 -4.86631,2.74094 c -12.10708,4.73438 -25.26953,11.3156 -34.22527,8.67725 -8.95573,-2.63836 -27.84925,0 -27.84925,0 0,0 -38.10953,-3.15136 -45.79006,-1.31919 a 14.760109,14.760109 0 0 1 -7.92969,0.16125 c 0.35175,-3.18069 0.64491,-5.20342 0.64491,-5.20342 0,0 113.30254,-18.35119 117.84637,-14.20312 1.05533,0.96739 1.77354,4.32396 2.1693,9.14629 z"
     id="path325"
     inkscape:connector-curvature="0"
     style="opacity:0.1;stroke-width:1.46575069" />
  <path
     d="m 564.79918,450.90285 c 0,0 -1.05533,13.19176 -13.19177,17.89681 -12.13641,4.70507 -25.26953,11.3156 -34.22527,8.6919 -8.95573,-2.62367 -27.84925,0 -27.84925,0 0,0 -38.10953,-3.16601 -45.79006,-1.31917 -7.68052,1.84687 -11.57943,-0.52766 -9.2196,-3.95753 2.3599,-3.42984 2.1107,-14.65749 2.1107,-19.46516 0,-4.80766 -2.63834,-23.95036 -0.26381,-27.38024 2.3745,-3.42983 4.39724,-16.57764 9.21956,-18.68832 a 5.1301275,5.1301275 0 0 0 2.93148,-3.34191 9.6153248,9.6153248 0 0 0 0,-4.80765 c 0,0 -0.79148,-0.6596 -1.90545,-1.64166 -2.78493,-2.49177 -7.50465,-7.10886 -5.98028,-8.61859 2.09603,-2.11069 0,-15.80079 0,-15.80079 0,0 -5.01287,-10.52408 -3.16601,-14.46695 1.84684,-3.94289 -16.12325,-24.74188 -16.12325,-24.74188 0,0 0,-35.79364 21.5905,-37.37666 0,0 15.25846,0.52768 17.10532,-6.31738 1.84685,-6.84504 13.95394,-10.78793 13.95394,-10.78793 l 27.62941,6.05355 c 0,0 24.47805,5.26205 28.94856,2.11068 4.47054,-3.15135 7.84177,4.19205 7.84177,4.19205 0,0 15.25847,0.79152 16.84149,3.94288 1.58301,3.15135 -4.99822,33.94677 -4.99822,33.94677 0,0 -11.05176,-1.04068 -10.26026,10.8026 0.79149,11.84325 -4.22136,26.8379 -4.22136,26.8379 0,0 -0.79149,8.69189 -0.26384,10.52409 0.52768,1.83219 -1.04069,8.32545 -1.2752,9.35149 v 0.13195 c 0,0 -1.08466,4.39727 0.33712,5.96559 a 1.4657506,1.4657506 0 0 0 0.45439,0.35179 c 2.11067,1.0407 5.27672,11.3156 5.27672,11.3156 a 10.392173,10.392173 0 0 1 2.35984,7.09423 c -0.26384,4.22137 1.31918,14.21778 8.16424,20.00748 6.84504,5.78973 13.96859,19.4945 13.96859,19.4945 z"
     id="path327"
     inkscape:connector-curvature="0"
     style="fill:#429442;stroke-width:1.46575069" />
  <path
     d="m 447.37788,389.98625 v 1.11397 l -0.48368,12.31232 c 0,0 -16.12327,1.31917 -24.91775,-0.92344 -8.79451,-2.2426 -5.10081,-11.96052 -4.76371,-13.99792 0.26383,-1.84682 2.63835,-17.25188 2.63835,-19.74367 0,-2.49174 0,-12.76668 -0.39576,-17.50105 -0.39574,-4.73437 1.96411,-17.89681 1.96411,-17.89681 l 1.71494,-2.11067 18.55641,7.10887 z"
     id="path329"
     inkscape:connector-curvature="0"
     style="fill:#429442;stroke-width:1.46575069" />
  <path
     d="m 447.33392,391.10022 -0.48369,12.31232 c 0,0 -16.12326,1.31917 -24.91775,-0.92344 -8.79452,-2.2426 -5.10084,-11.96052 -4.7637,-13.99792 z"
     id="path331"
     inkscape:connector-curvature="0"
     style="opacity:0.1;stroke-width:1.46575069" />
  <path
     d="m 448.50651,403.3539 a 9.6153248,9.6153248 0 0 0 0,-4.80765 c 0,0 -0.79147,-0.6596 -1.90546,-1.64165 13.95395,-1.93481 69.13948,-9.51274 87.73984,-10.26024 v 0.13194 c 0,0 -1.08466,4.39726 0.33711,5.9656 z"
     id="path333"
     inkscape:connector-curvature="0"
     style="opacity:0.1;stroke-width:1.46575069" />
  <path
     d="m 536.33431,412.88128 c 0,0 3.42986,19.34791 -9.33683,26.19296 0,0 7.2408,-9.60066 9.33683,-26.19296 z"
     id="path335"
     inkscape:connector-curvature="0"
     style="opacity:0.1;stroke-width:1.46575069" />
  <path
     d="m 452.77186,439.60191 c 0,0 30.78076,-5.26204 36.84897,-1.18725 6.06821,4.07479 -36.84897,1.18725 -36.84897,1.18725 z"
     id="path337"
     inkscape:connector-curvature="0"
     style="opacity:0.1;stroke-width:1.46575069" />
  <path
     d="m 525.6783,319.71814 c 0,0 -4.73437,19.47986 -1.18725,23.95039 3.54712,4.47054 1.18725,-23.95039 1.18725,-23.95039 z"
     id="path339"
     inkscape:connector-curvature="0"
     style="opacity:0.1;stroke-width:1.46575069" />
  <path
     d="m 436.45805,303.8001 c 0,0 4.39726,7.22615 1.71495,14.73081 -2.68234,7.50463 -1.71495,-14.73081 -1.71495,-14.73081 z"
     id="path341"
     inkscape:connector-curvature="0"
     style="opacity:0.1;stroke-width:1.46575069" />
  <path
     d="m 427.51697,367.22314 c 0,0 5.52588,3.29793 3.67901,8.42806 -1.84681,5.13013 -3.67901,-8.42806 -3.67901,-8.42806 z"
     id="path343"
     inkscape:connector-curvature="0"
     style="fill:#429442;stroke-width:1.46575069" />
  <path
     d="m 427.01861,352.22851 c 0,0 5.13012,2.75562 5.78972,6.83041 0.65957,4.07479 -5.78972,-6.83041 -5.78972,-6.83041 z"
     id="path345"
     inkscape:connector-curvature="0"
     style="opacity:0.1;stroke-width:1.46575069" />
  <path
     d="m 503.0471,509.60618 c 0,0 32.24653,3.29793 38.68117,-4.39727 0,0.0586 -29.0805,5.78971 -38.68117,4.39727 z"
     id="path347"
     inkscape:connector-curvature="0"
     style="opacity:0.1;stroke-width:1.46575069" />
  <path
     d="m 447.37788,507.7593 c 0,0 34.6064,8.16426 41.45145,1.71494 0,0.0586 -29.74009,2.24261 -41.45145,-1.71494 z"
     id="path349"
     inkscape:connector-curvature="0"
     style="opacity:0.1;stroke-width:1.46575069" />
  <path
     d="m 505.53887,520.26217 c 0,0 14.48165,0 21.19476,0.39574 6.71314,0.39577 -21.19476,-0.39574 -21.19476,-0.39574 z"
     id="path351"
     inkscape:connector-curvature="0"
     style="opacity:0.1;stroke-width:1.46575069" />
  <path
     d="m 449.75242,526.44765 c 0,0 7.10888,8.03231 15.12655,6.58123 8.01764,-1.4511 -15.12655,-6.58123 -15.12655,-6.58123 z"
     id="path353"
     inkscape:connector-curvature="0"
     style="opacity:0.1;stroke-width:1.46575069" />
  <path
     d="m 463.66239,197.70908 c -2.22794,3.45917 -2.30124,7.46067 -2.9315,11.30091 a 47.109227,47.109227 0 0 1 -12.63478,24.91779 c -6.30272,6.71313 -14.96531,12.796 -16.60695,20.98955 -1.53905,7.78311 3.70834,15.27311 6.46397,22.85104 7.32874,19.97819 -2.93151,40.93842 -5.863,61.56155 -0.82083,5.70175 0.16121,12.98654 7.18217,14.87736 2.19863,0.5863 4.70505,0.51301 6.68381,1.46575 2.63835,1.26055 3.44451,3.89889 3.92823,6.25876 a 95.9627,95.9627 0 0 1 1.81752,25.78256 c -0.32247,4.85163 -0.67426,10.42147 3.8989,13.7634 a 23.598587,23.598587 0 0 0 7.59258,3.01942 c 7.21151,1.94947 16.53366,3.48852 21.39996,-1.05533 2.0374,-1.90549 2.79959,-4.60246 5.35,-6.11217 3.81094,-2.25726 9.21957,-0.73288 14.01258,-0.49837 a 25.401459,25.401459 0 0 0 22.79241,-12.23901 c 3.88424,-7.00631 3.54712,-14.95067 2.1107,-22.48461 -1.43644,-7.53397 -3.92824,-14.97997 -4.10412,-22.60188 a 13.059839,13.059839 0 0 1 1.70026,-7.65122 c 2.93153,-4.54383 9.74726,-6.61054 14.42299,-10.17231 8.79451,-6.68382 8.70656,-17.58901 5.54057,-26.82325 -3.16605,-9.23422 -8.89714,-17.94076 -9.60069,-27.4242 a 10.509432,10.509432 0 0 1 1.28987,-6.62517 26.647348,26.647348 0 0 1 5.43794,-4.85165 c 12.76668,-10.77326 11.25696,-28.47954 0.70355,-40.58663 -11.69669,-13.48489 -64.61029,-42.40418 -80.58697,-17.66229 z"
     id="path355"
     inkscape:connector-curvature="0"
     style="fill:#e3787d;stroke-width:1.46575069" />
  <g
     id="g367"
     transform="matrix(1.4657506,0,0,1.4657506,-260.41847,-376.0444)"
     style="opacity:0.1">
    <path
       d="m 546.63,504.62 a 34.17,34.17 0 0 0 -1.38,-16.19 c -0.94,-2.61 -2.32,-5.2 -3.33,-7.81 a 11.65,11.65 0 0 0 -1.08,3 c -1.05,5.31 2.53,10.42 4.41,15.59 a 28,28 0 0 1 1.38,5.41 z"
       transform="translate(-69,-52.82)"
       id="path357"
       inkscape:connector-curvature="0" />
    <path
       d="m 554.65,563.44 a 65.47,65.47 0 0 0 -1.24,-17.59 c -0.33,-1.61 -0.88,-3.41 -2.68,-4.27 -1.35,-0.65 -3.06,-0.6 -4.56,-1 a 6.26,6.26 0 0 1 -4.19,-3.47 c -0.27,1.36 -0.51,2.73 -0.71,4.09 -0.56,3.89 0.11,8.86 4.9,10.15 1.5,0.4 3.21,0.35 4.56,1 1.8,0.87 2.35,2.66 2.68,4.28 a 65.86,65.86 0 0 1 1.16,8.12 c 0.02,-0.44 0.05,-0.88 0.08,-1.31 z"
       transform="translate(-69,-52.82)"
       id="path359"
       inkscape:connector-curvature="0" />
    <path
       d="m 605.85,561.31 a 17.32,17.32 0 0 1 -15.55,8.35 c -3.27,-0.16 -7,-1.2 -9.56,0.34 -1.73,1 -2.26,2.87 -3.65,4.17 -3.32,3.1 -9.68,2.05 -14.6,0.72 a 15.75,15.75 0 0 1 -5.17,-2.07 6.52,6.52 0 0 1 -2.56,-4.14 c 0,1.84 0,3.69 -0.11,5.53 -0.22,3.31 -0.46,7.11 2.67,9.39 a 16,16 0 0 0 5.17,2.06 c 4.92,1.33 11.28,2.38 14.6,-0.71 1.39,-1.31 1.92,-3.15 3.65,-4.18 2.6,-1.54 6.29,-0.5 9.56,-0.34 a 17.32,17.32 0 0 0 15.55,-8.35 c 2.55,-4.59 2.44,-9.78 1.55,-14.74 a 16.27,16.27 0 0 1 -1.55,3.97 z"
       transform="translate(-69,-52.82)"
       id="path361"
       inkscape:connector-curvature="0" />
    <path
       d="m 617.23,473.47 a 17.62,17.62 0 0 0 -3.63,3.39 7.17,7.17 0 0 0 -0.88,4.52 24.18,24.18 0 0 0 1.24,5.77 23.63,23.63 0 0 1 3.27,-2.91 c 5.89,-5 7.32,-12.1 5.41,-18.75 a 17.18,17.18 0 0 1 -5.41,7.98 z"
       transform="translate(-69,-52.82)"
       id="path363"
       inkscape:connector-curvature="0" />
    <path
       d="m 615.49,518.39 c -3.19,2.43 -7.84,3.84 -9.84,6.93 a 9,9 0 0 0 -1.16,5.23 36.69,36.69 0 0 0 0.77,6.25 4.8,4.8 0 0 1 0.39,-0.7 c 2,-3.1 6.65,-4.51 9.84,-6.94 5.44,-4.17 5.9,-10.76 4.29,-16.64 a 12.64,12.64 0 0 1 -4.29,5.87 z"
       transform="translate(-69,-52.82)"
       id="path365"
       inkscape:connector-curvature="0" />
  </g>
  <path
     d="m 600.69542,309.58982 c -5.39395,13.69013 -12.3856,19.05478 -12.3856,19.05478 h -3.88423 l -34.13734,0.35176 -3.94289,-10.78792 5.5259,-23.29077 3.4152,0.13194 a 19.699689,19.699689 0 0 0 6.58122,2.11069 c 2.50644,0 7.32876,-0.13197 8.79452,0.52765 a 1.2165731,1.2165731 0 0 0 0.64491,0.088 c 1.28987,-0.13196 2.63837,-2.0667 2.63837,-2.0667 0,0 32.12925,0.19055 26.74994,13.88065 z"
     id="path369"
     inkscape:connector-curvature="0"
     style="fill:#429442;stroke-width:1.46575069" />
  <path
     d="m 600.69542,309.58982 c -5.39395,13.69013 -12.3856,19.05478 -12.3856,19.05478 h -3.88423 c 2.03738,-5.4233 6.30273,-16.54836 7.97369,-19.05478 1.67095,-2.50642 -12.70808,-8.48669 -21.06285,-11.726 1.28987,-0.13196 2.63836,-2.0667 2.63836,-2.0667 0,0 32.09994,0.10251 26.72063,13.7927 z"
     id="path371"
     inkscape:connector-curvature="0"
     style="opacity:0.1;stroke-width:1.46575069" />
  <path
     d="m 682.63485,332.56712 a 55.075692,55.075692 0 1 1 -38.98167,16.13164 54.737265,54.737265 0 0 1 38.98167,-16.13164 m 0,-8.57347 a 63.686751,63.686751 0 1 0 63.68675,63.68676 63.674217,63.674217 0 0 0 -63.68675,-63.68676 z"
     id="path65"
     inkscape:connector-curvature="0"
     style="fill:#429442;stroke-width:1.25342953" />
  <path
     d="m 719.23929,363.77236 -6.22847,-6.38129 a 1.2991816,1.2991816 0 0 0 -0.97436,-0.42033 1.2609704,1.2609704 0 0 0 -0.9935,0.42033 l -43.04495,43.36974 -15.68569,-15.6666 a 1.3373928,1.3373928 0 0 0 -0.97439,-0.4203 1.3756041,1.3756041 0 0 0 -0.9935,0.4203 l -6.28575,6.28576 a 1.3756041,1.3756041 0 0 0 0,2.00607 l 19.7552,19.717 a 6.1902185,6.1902185 0 0 0 4.12682,2.0061 6.553225,6.553225 0 0 0 4.0886,-1.91056 v 0 l 47.19087,-47.45836 a 1.5093433,1.5093433 0 0 0 0,-1.91055 z"
     id="path57-6"
     inkscape:connector-curvature="0"
     style="opacity:0.8;fill:#429442;fill-opacity:1;stroke-width:1.91056108" />
</svg>
