<svg xmlns="http://www.w3.org/2000/svg" width="1000" height="1000" viewBox="0 0 1000px 1000px">
  <defs>
    <marker orient="auto" id="a" overflow="visible">
      <path d="M-5.231-2.42L1.324-.01-5.23 2.401c1.047-1.423 1.041-3.37 0-4.821z" fill-rule="evenodd" stroke-width=".375" stroke-linejoin="round" stroke="#323948" fill="#323948"/>
    </marker>
  </defs>
  <path fill="#f8f9fc" d="M0 0h1000v1000H0z"/>
  <g aria-label="F" style="line-height:1.25;-inkscape-font-specification:'Advent Pro, Bold';font-variant-ligatures:normal;font-variant-caps:normal;font-variant-numeric:normal;font-feature-settings:normal;text-align:start" font-weight="700" font-size="226.156" font-family="Advent Pro" letter-spacing="0" word-spacing="0" stroke-width=".222">
    <path style="-inkscape-font-specification:'Advent Pro, Bold';font-variant-ligatures:normal;font-variant-caps:normal;font-variant-numeric:normal;font-feature-settings:normal;text-align:start" d="M260.151 36.494v362.918c50.541-32.241 95.298-34.612 139.054 1.175v-41.81h131.47l45.51-86.325h-176.98v-145.52H682.37V36.494z" fill="#0c2c7f"/>
    <path style="-inkscape-font-specification:'Advent Pro, Bold';font-variant-ligatures:normal;font-variant-caps:normal;font-variant-numeric:normal;font-feature-settings:normal;text-align:start" d="M328.711 426.633c-24.229.4-48.136 9.893-68.56 26.288V652.78H387.03a373.409 373.409 0 0 0-.077 7.292v130.49c0 50.973 8.834 90.734 26.505 119.279 18.35 27.865 47.576 48.593 87.674 62.186 24.468 8.155 55.052 12.233 91.752 12.233 39.42 0 80.198-5.436 122.336-16.31l-24.469-87.675c-30.584 8.835-61.168 13.253-91.751 13.253-34.662 0-63.206-7.137-85.634-21.41-22.429-14.272-33.643-37.718-33.643-70.341V653.954c0-26.53 5.782-48.476 17.33-65.85-7.733-10.735-15.413-21.71-23.065-32.723-11.366-16.36-22.688-32.723-34.04-48.21-18.35 18.001-31.923 40.413-40.742 67.213V454.893c-21.714-19.969-46.265-28.66-70.494-28.26z" fill="#367b36"/>
    <path style="-inkscape-font-specification:'Advent Pro, Bold';font-variant-ligatures:normal;font-variant-caps:normal;font-variant-numeric:normal;font-feature-settings:normal;text-align:start" d="M604.606 433.75c-51.888 0-94.934 15.326-129.148 45.962 11.726 15.96 23.326 32.751 34.937 49.463 7.032 10.12 14.07 20.179 21.129 30.019a88.937 88.937 0 0 1 5.799-6.165c20.39-19.71 48.254-29.566 83.595-29.566 29.905 0 61.509 6.796 94.811 20.389l25.487-77.478c-31.298-19.007-92.433-32.625-136.61-32.625z" fill="#0c2c7f"/>
    <path d="M65.627 500.264c14.183-6.408 21.49-133.659 56.956-136.524 22.548-1.821 28.476 68.654 58.398 70.818 44.722 3.234 47.794-136.267 51.188-170.779" fill="none" stroke="#323948" stroke-width="3.993" stroke-linecap="round" stroke-linejoin="round" marker-end="url(#a)" transform="matrix(5.58964 0 0 3.63534 -355.459 -920.997)"/>
  </g>
</svg>
