<?xml version="1.0" encoding="UTF-8" standalone="no"?>
<svg
   xmlns:dc="http://purl.org/dc/elements/1.1/"
   xmlns:cc="http://creativecommons.org/ns#"
   xmlns:rdf="http://www.w3.org/1999/02/22-rdf-syntax-ns#"
   xmlns:svg="http://www.w3.org/2000/svg"
   xmlns="http://www.w3.org/2000/svg"
   xmlns:sodipodi="http://sodipodi.sourceforge.net/DTD/sodipodi-0.dtd"
   xmlns:inkscape="http://www.inkscape.org/namespaces/inkscape"
   inkscape:version="1.0 (4035a4fb49, 2020-05-01)"
   sodipodi:docname="HTML5 Logo.svg"
   id="svg14"
   version="1.1"
   viewBox="0 0 512 512">
  <metadata
     id="metadata20">
    <rdf:RDF>
      <cc:Work
         rdf:about="">
        <dc:format>image/svg+xml</dc:format>
        <dc:type
           rdf:resource="http://purl.org/dc/dcmitype/StillImage" />
      </cc:Work>
    </rdf:RDF>
  </metadata>
  <defs
     id="defs18" />
  <sodipodi:namedview
     inkscape:current-layer="svg14"
     inkscape:window-maximized="0"
     inkscape:window-y="0"
     inkscape:window-x="2560"
     inkscape:cy="328.31068"
     inkscape:cx="68.280162"
     inkscape:zoom="1.158716"
     showgrid="false"
     id="namedview16"
     inkscape:window-height="1080"
     inkscape:window-width="2560"
     inkscape:pageshadow="2"
     inkscape:pageopacity="0"
     guidetolerance="10"
     gridtolerance="10"
     objecttolerance="10"
     borderopacity="1"
     bordercolor="#666666"
     pagecolor="#ffffff" />
  <title
     id="title2">HTML5 Logo</title>
  <path
     style="fill:#00103d;fill-opacity:1"
     id="path4"
     d="M108.4 0h23v22.8h21.2V0h23v69h-23V46h-21v23h-23.2M206 23h-20.3V0h63.7v23H229v46h-23M259.5 0h24.1l14.8 24.3L313.2 0h24.1v69h-23V34.8l-16.1 24.8l-16.1-24.8v34.2h-22.6M348.7 0h23v46.2h32.6V69h-55.6" />
  <path
     style="fill:#2649ab;fill-opacity:1"
     id="path6"
     d="M107.6 471l-33-370.4h362.8l-33 370.2L255.7 512"
     fill="#e44d26" />
  <path
     style="fill:#7d9ae8;fill-opacity:1"
     id="path8"
     d="M256 480.5V131H404.3L376 447"
     fill="#f16529" />
  <path
     style="fill:#cdd3e4;fill-opacity:1"
     id="path10"
     d="M142 176.3h114v45.4h-64.2l4.2 46.5h60v45.3H154.4M156.4 336.3H202l3.2 36.3 50.8 13.6v47.4l-93.2-26"
     fill="#ebebeb" />
  <path
     style="fill:#f8f9fc;fill-opacity:1"
     id="path12"
     d="M369.6 176.3H255.8v45.4h109.6M361.3 268.2H255.8v45.4h56l-5.3 59-50.7 13.6v47.2l93-25.8"
     fill="#fff" />
</svg>
