<?xml version="1.0" encoding="UTF-8" standalone="no"?>
<svg
   xmlns:dc="http://purl.org/dc/elements/1.1/"
   xmlns:cc="http://creativecommons.org/ns#"
   xmlns:rdf="http://www.w3.org/1999/02/22-rdf-syntax-ns#"
   xmlns:svg="http://www.w3.org/2000/svg"
   xmlns="http://www.w3.org/2000/svg"
   xmlns:sodipodi="http://sodipodi.sourceforge.net/DTD/sodipodi-0.dtd"
   xmlns:inkscape="http://www.inkscape.org/namespaces/inkscape"
   id="ac370e99-250f-4203-ae2c-c306a69114f3"
   data-name="Layer 1"
   width="1144"
   height="697.99"
   viewBox="0 0 1144 697.99"
   version="1.1"
   sodipodi:docname="manage-i-s.svg"
   inkscape:version="0.92.4 (5da689c313, 2019-01-14)">
  <metadata
     id="metadata194">
    <rdf:RDF>
      <cc:Work
         rdf:about="">
        <dc:format>image/svg+xml</dc:format>
        <dc:type
           rdf:resource="http://purl.org/dc/dcmitype/StillImage" />
      </cc:Work>
    </rdf:RDF>
  </metadata>
  <sodipodi:namedview
     pagecolor="#ffffff"
     bordercolor="#666666"
     borderopacity="1"
     objecttolerance="10"
     gridtolerance="10"
     guidetolerance="10"
     inkscape:pageopacity="0"
     inkscape:pageshadow="2"
     inkscape:window-width="1920"
     inkscape:window-height="1001"
     id="namedview192"
     showgrid="false"
     showguides="true"
     inkscape:guide-bbox="true"
     inkscape:zoom="0.83814405"
     inkscape:cx="530.46147"
     inkscape:cy="308.82472"
     inkscape:window-x="-9"
     inkscape:window-y="-9"
     inkscape:window-maximized="1"
     inkscape:current-layer="ac370e99-250f-4203-ae2c-c306a69114f3" />
  <defs
     id="defs9">
    <linearGradient
       id="b5f20e7f-16f1-44c3-85ac-2c33fb8e67f8"
       x1="2612.03"
       y1="795.18"
       x2="2612.03"
       y2="399.52"
       gradientTransform="matrix(-1.5442261,0,0,1.5442261,4901.1853,-535.83114)"
       gradientUnits="userSpaceOnUse">
      <stop
         offset="0"
         stop-color="gray"
         stop-opacity="0.25"
         id="stop2" />
      <stop
         offset="0.54"
         stop-color="gray"
         stop-opacity="0.12"
         id="stop4" />
      <stop
         offset="1"
         stop-color="gray"
         stop-opacity="0.1"
         id="stop6" />
    </linearGradient>
  </defs>
  <title
     id="title11">personal settings</title>
  <rect
     x="716.30786"
     y="75.764549"
     width="219.43192"
     height="57.250027"
     rx="28.625013"
     id="rect33"
     style="fill:#3f3d56;stroke-width:1.59204745" />
  <rect
     x="730.60449"
     y="85.332771"
     width="190.82283"
     height="38.097698"
     rx="19.056808"
     id="rect35"
     style="opacity:0.1;stroke-width:1.59204745" />
  <rect
     x="714.57819"
     y="509.06998"
     width="219.43192"
     height="57.250027"
     rx="28.625013"
     id="rect33-7-0"
     style="fill:#3f3d56;stroke-width:1.59204745" />
  <rect
     x="728.87482"
     y="518.63818"
     width="190.82283"
     height="38.097698"
     rx="19.056808"
     id="rect35-9-9"
     style="opacity:0.1;stroke-width:1.59204745" />
  <circle
     cx="841.61914"
     cy="526.42444"
     id="circle55"
     r="8.0347862"
     style="fill:#ffffff;stroke-width:1.20642436" />
  <rect
     x="209.98776"
     y="49.644215"
     width="137.76744"
     height="36.438175"
     rx="18.210539"
     id="rect57"
     style="fill:#429442;stroke-width:1.7099098" />
  <rect
     x="209.98776"
     y="108.93331"
     width="393.99701"
     height="37.527718"
     rx="18.755053"
     id="rect61"
     style="fill:#429442;stroke-width:1.76103783" />
  <ellipse
     cx="866.12256"
     cy="681.77557"
     rx="228.0513"
     ry="16.214373"
     id="ellipse91"
     style="opacity:0.1;fill:#429442;stroke-width:1.54422593" />
  <rect
     x="714.57819"
     y="364.8045"
     width="219.43192"
     height="57.250027"
     rx="28.625013"
     id="rect33-7-1"
     style="fill:#3f3d56;stroke-width:1.59204745" />
  <rect
     x="728.87482"
     y="374.37271"
     width="190.82283"
     height="38.097698"
     rx="19.056808"
     id="rect35-9-3"
     style="opacity:0.1;stroke-width:1.59204745" />
  <rect
     x="804.86121"
     y="519.88013"
     width="68.903816"
     height="33.926533"
     rx="16.955305"
     id="rect37-9-9"
     style="fill:#429442;stroke-width:1.59204745" />
  <line
     x1="167.88791"
     y1="314.12567"
     x2="954.47662"
     y2="314.12567"
     stroke-miterlimit="10"
     id="line83-4"
     style="opacity:0.7;fill:none;stroke:#3f3d56;stroke-width:3.6;stroke-linecap:round;stroke-miterlimit:10;stroke-dasharray:none" />
  <line
     x1="167.88791"
     y1="635.55933"
     x2="954.47656"
     y2="635.55933"
     stroke-miterlimit="10"
     id="line83-46"
     style="opacity:0.7;fill:none;stroke:#3f3d56;stroke-width:3.6;stroke-linecap:round;stroke-miterlimit:10;stroke-dasharray:none" />
  <path
     d="m 758.28923,640.86909 c 2.42443,-0.35516 4.84887,-0.84932 7.22696,-1.40524 a 22.576585,22.576585 0 0 1 -2.03837,6.85636 c -2.36265,4.47825 -6.97989,7.18066 -11.22651,9.92937 a 3.4745086,3.4745086 0 0 0 -4.38562,-0.2934 c -5.11138,3.08845 -9.18813,7.44317 -14.60837,10.09924 -1.8994,0.92653 -3.87601,1.66776 -5.72909,2.7024 a 30.884521,30.884521 0 0 0 -10.80957,11.16476 c -1.54422,2.39353 -2.79505,5.54376 -1.28171,7.92186 a 6.8563635,6.8563635 0 0 0 2.1928,1.96118 12.477346,12.477346 0 0 0 7.52038,2.23912 c 1.54424,-0.13898 3.08846,-0.72579 4.77166,-0.98829 2.11559,-0.37064 4.27752,-0.18531 6.40853,-0.37064 a 37.462924,37.462924 0 0 0 9.01829,-2.33177 l 10.60884,-3.70614 a 61.274889,61.274889 0 0 0 8.72488,-3.58261 c 1.6832,-0.91109 3.27375,-1.9766 4.98785,-2.81049 a 40.149876,40.149876 0 0 1 5.9607,-2.10014 l 6.02248,-1.76042 a 5.8680589,5.8680589 0 0 1 2.71785,-0.35518 c 0.83388,0.15443 1.54422,0.67947 2.39353,0.89567 a 7.2269779,7.2269779 0 0 0 3.86059,-0.37062 l 6.97989,-1.97662 a 13.156806,13.156806 0 0 0 4.15398,-1.72952 c 3.19653,-2.27002 3.7679,-6.77916 3.75246,-10.71693 a 81.179962,81.179962 0 0 0 -2.0075,-17.72772 5.512887,5.512887 0 0 0 -2.27001,1.71409 33.108206,33.108206 0 0 0 -2.3009,-2.8877 34.451683,34.451683 0 0 1 -6.96446,-12.8634 22.638354,22.638354 0 0 0 6.1769,-6.97991 c -3.69069,-14.06789 -7.47404,-28.35198 -14.97898,-40.76756 -2.45532,-4.04587 -5.26581,-7.84468 -7.72114,-11.82877 -7.30418,-11.5817 -8.80209,-26.25185 -17.15634,-37.06143 a 6.4239804,6.4239804 0 0 1 0,-7.53582 c 0.95741,-1.26627 2.50164,-2.45531 2.20824,-4.03044 -0.21619,-1.12729 -1.38981,-2.16191 -0.94197,-3.21199 0.21618,-0.50959 0.74121,-0.78755 1.14272,-1.15817 1.42069,-1.32802 1.23538,-3.56716 1.37436,-5.51288 0.30884,-4.91063 3.22744,-9.26535 6.03793,-13.21858 a 8.1226289,8.1226289 0 0 1 2.22368,-2.40899 c 0.75667,-0.46327 1.65232,-0.67945 2.40899,-1.14272 2.65606,-1.6832 2.47076,-5.59011 3.73703,-8.49325 1.66777,-3.82968 5.86806,-5.75996 8.61678,-8.86386 3.5054,-3.95322 4.40105,-9.45065 8.09175,-12.89428 a 9.4661055,9.4661055 0 0 1 1.21994,-0.98831 62.139656,62.139656 0 0 0 -2.17736,17.99025 c -0.35518,20.89337 4.83343,42.51253 2.40899,63.31326 -1.91485,16.46144 8.13808,32.87656 22.39127,41.10728 a 107.03031,107.03031 0 0 0 17.43431,7.39686 c 8.92564,3.19654 17.82037,6.48574 26.57614,10.16101 q 9.26535,3.89144 18.28362,8.35426 a 227.5417,227.5417 0 0 1 21.61917,12.0604 c 8.58589,5.51289 17.18725,11.10298 23.28693,19.3337 a 18.438059,18.438059 0 0 0 10.28455,-3.78336 c 2.34723,1.85308 5.1886,3.25833 7.39684,5.31215 a 22.329509,22.329509 0 0 1 5.86806,11.51993 h -0.92654 c 0.10806,2.05381 0.20076,4.10764 0.30886,6.1769 a 2.6251843,2.6251843 0 0 1 -0.23164,1.54422 2.7950492,2.7950492 0 0 1 -0.83389,0.75668 l -4.75621,3.22744 c -3.45906,2.33178 -7.27331,5.28125 -7.45861,9.46609 a 4.8179853,4.8179853 0 0 0 1.03463,3.38187 7.2887468,7.2887468 0 0 0 4.23117,1.91483 c 8.27707,1.74497 16.75486,3.44363 25.14,2.31634 3.98412,-0.54048 8.1072,-1.85308 10.70149,-4.94153 2.37812,-2.81049 3.08845,-6.62472 3.73703,-10.25366 1.03464,-6.17689 1.8994,-12.49278 2.57886,-18.76233 a 41.477911,41.477911 0 0 1 2.56341,-12.46192 1.5442261,1.5442261 0 0 1 0.66403,-0.83388 c 0.35515,-0.15441 0.77211,0 1.14272,-0.15441 0.37061,-0.15443 0.61768,-0.72579 0.74122,-1.18907 a 73.675025,73.675025 0 0 0 2.20825,-18.65423 12.57,12.57 0 0 0 -0.72579,-4.80255 9.6977394,9.6977394 0 0 0 -6.60928,-5.09595 52.642666,52.642666 0 0 0 -8.53957,-1.01919 42.404447,42.404447 0 0 1 -7.088,-1.29715 6.4857493,6.4857493 0 0 0 -2.94947,-0.38606 2.0692629,2.0692629 0 0 0 -1.7913,2.05382 2.6406265,2.6406265 0 0 0 0.37061,1.00376 l -2.40899,-0.47873 c -1.94573,-0.35516 -4.63269,-1.20449 -7.55127,-1.91483 q 0,-0.74124 0.0927,-1.54423 a 2.9185871,2.9185871 0 0 0 -1.63687,-2.65607 l -40.79845,-21.80447 -7.62849,-4.07675 c -16.70851,-8.94108 -33.97297,-17.20268 -50.72782,-26.14374 -1.11185,0.33973 -2.03838,-0.94198 -2.36267,-2.08471 -0.32428,-1.14273 -0.55591,-2.50166 -1.62143,-3.01125 -0.52504,-0.24707 -1.21994,-0.23163 -1.54422,-0.67945 a 1.837629,1.837629 0 0 1 -0.29341,-1.37437 c 0.54048,-8.13808 6.36221,-15.643 5.20404,-23.70386 -0.49416,-3.44363 -2.27002,-6.84093 -1.54423,-10.22278 0.54048,-2.33178 2.20824,-4.23118 3.08845,-6.45486 2.0075,-4.97241 0,-10.94857 2.1928,-15.81288 a 36.613599,36.613599 0 0 0 2.94948,-10.06836 69.165884,69.165884 0 0 1 6.17689,-19.98228 36.057678,36.057678 0 0 1 5.74453,-8.75576 c 1.21994,-1.32804 2.5943,-2.51709 3.76792,-3.89146 3.55171,-4.24661 4.8643,-9.89848 5.86806,-15.44225 1.82218,-9.89849 3.08845,-20.16759 0.80299,-29.98887 -0.77211,-3.33553 -1.94572,-6.65562 -1.8994,-10.08379 0,-4.10765 1.65232,-8.81754 -0.33972,-12.10674 a 10.65516,10.65516 0 0 0 3.84512,-6.59383 8.5241276,8.5241276 0 0 1 0.54048,-2.7333 7.9373218,7.9373218 0 0 1 2.57885,-2.31633 10.670602,10.670602 0 0 0 3.9841,-10.60884 c 2.1156,0.95743 4.33928,-1.18904 5.34303,-3.30465 1.00375,-2.11558 1.76042,-4.63267 3.90689,-5.59008 1.45157,-0.61769 3.08844,-0.24708 4.63268,-0.64858 2.45531,-0.63313 3.95322,-3.08846 5.68275,-4.89521 3.52083,-3.79878 8.50868,-5.75996 13.12593,-8.09173 13.68183,-6.96446 24.83115,-17.97479 35.74882,-28.81526 A 121.03644,121.03644 0 0 0 971.655,283.76682 c 1.21993,-1.80674 2.33178,-3.67526 3.38185,-5.59009 l 0.27795,-0.13899 0.0927,0.33973 c 0.16985,0.67946 0.37061,1.35893 0.57137,2.02295 0.49415,1.54422 1.05006,3.19655 1.54422,4.77165 1.66777,4.63267 3.4745,9.5742 6.8718,13.07959 a 16.18349,16.18349 0 0 0 3.52084,2.73327 23.626658,23.626658 0 0 0 9.06461,2.71785 c 1.20449,0.15442 2.42443,0.24708 3.64436,0.30885 1.22,0.0617 2.4399,0.10817 3.6444,0.13897 l 24.9856,0.66402 c -8.5859,-12.44646 -9.2654,-28.62994 -8.694,-43.7788 1.4361,-38.9145 9.0183,-78.18416 1.9766,-116.48098 -0.8493,-4.63267 -1.9766,-9.26535 -4.8026,-12.98694 -3.7061,-4.8643 -9.7903,-7.21154 -15.7202,-8.58588 -5.92981,-1.37437 -12.09127,-2.03839 -17.63506,-4.5246 -4.63267,-2.11558 -8.89473,-5.51288 -13.89803,-6.62472 A 30.606559,30.606559 0 0 0 959.363,112.018 q -6.76371,1.00375 -13.45021,2.37812 l -1.08096,0.23162 h 0.0464 l -0.74124,0.16988 h -0.20074 l -0.66402,0.15442 h -0.24708 l -0.61768,0.16985 -0.27798,0.0772 -0.57135,0.18531 -0.32429,0.10816 -0.52504,0.16985 -0.33972,0.13898 -0.49416,0.18531 -0.37061,0.15443 -0.44783,0.20075 -0.3706,0.1853 -0.41696,0.20076 -0.37061,0.2162 -0.38606,0.21618 -0.37062,0.24707 -0.35516,0.23164 -0.37062,0.26252 -0.30884,0.24708 -0.35517,0.30883 -0.29341,0.26252 a 3.6907002,3.6907002 0 0 0 -0.33972,0.35518 l -0.26252,0.26251 a 4.6326781,4.6326781 0 0 0 -0.33973,0.43238 c 0,0.0772 -0.13898,0.15443 -0.20075,0.24708 -0.0618,0.0927 -0.27796,0.40151 -0.41695,0.63313 v 0.0927 a 9.4043366,9.4043366 0 0 0 -0.84932,1.83762 c -0.10816,0.3243 -0.21619,0.64858 -0.2934,0.97287 a 14.731917,14.731917 0 0 0 -0.33974,2.00749 c 0,0.33974 0,0.6949 -0.0772,1.03464 0,0.67945 0,1.37436 0,2.05381 a 30.297715,30.297715 0 0 0 0.38606,3.45907 37.632787,37.632787 0 0 0 -1.7913,63.66844 16.893833,16.893833 0 0 1 0.12352,1.83763 v 0.4015 a 50.959459,50.959459 0 0 1 -0.67946,6.51663 90.584299,90.584299 0 0 0 -18.53071,-1.65232 c -3.70614,0 -7.44317,0.33974 -11.18019,0.63314 a 168.52138,168.52138 0 0 1 -11.1802,-15.13342 l -8.24617,-12.09128 a 115.16838,115.16838 0 0 1 -7.72112,-12.35382 c -2.02294,-3.92234 -3.59805,-8.09174 -5.85262,-11.89054 -4.63267,-7.82922 -12.19938,-14.48484 -13.14137,-23.54945 l -2.17736,0.44783 c -1.18905,-1.94572 -2.68695,-3.99955 -3.24287,-5.12683 a 101.22402,101.22402 0 0 1 -6.85637,-20.07493 c -0.75667,-3.58261 -1.32803,-7.319633 -3.28919,-10.408085 a 23.456794,23.456794 0 0 0 -4.80255,-5.095948 31.76473,31.76473 0 0 0 -10.28454,-6.485758 13.295786,13.295786 0 0 0 -10.51618,0.617689 15.442261,15.442261 0 0 0 -1.54422,-0.617689 12.739864,12.739864 0 0 0 -11.67436,1.358927 c -3.24287,2.486205 -4.63267,6.748257 -5.12683,10.809585 a 26.684226,26.684226 0 0 0 2.74873,16.399679 c 3.08844,5.52832 8.61677,9.26535 13.18769,13.65096 a 53.414779,53.414779 0 0 1 8.29249,10.31542 112.97558,112.97558 0 0 1 -0.63313,25.03191 c -0.58682,3.55172 -1.54423,7.04167 -1.8222,10.62427 -1.12729,12.94062 5.60555,25.88122 3.19655,38.60565 a 9.4197788,9.4197788 0 0 0 4.37016,9.99115 c 3.45906,1.8685 7.50495,2.11558 11.30374,3.08845 7.45861,1.91484 13.89803,6.68649 21.43385,8.46235 3.47453,0.83389 7.08801,0.98831 10.54708,1.91485 l 0.54047,0.16985 a 25.124558,25.124558 0 0 0 -5.54377,10.53164 c -1.54422,6.48574 -0.0927,13.41933 -1.63688,19.90507 -1.26626,5.34302 -4.44737,10.00658 -7.58215,14.53116 q -9.04917,13.09504 -18.12921,26.25185 a 160.80025,160.80025 0 0 1 -13.35755,17.55784 c -8.32338,9.09549 -22.6847,16.30702 -26.91587,27.24016 -0.0927,-0.26252 -0.21619,-0.52505 -0.30884,-0.78756 -5.9916,4.40104 -8.23074,12.60089 -13.00239,18.29908 -2.33178,2.76416 -5.20404,5.0033 -7.72113,7.5667 a 87.31054,87.31054 0 0 0 -8.53957,10.60884 c -7.10343,9.85216 -14.2532,19.75064 -19.33371,30.79186 -2.65607,5.74453 -4.70988,11.72068 -6.82548,17.66594 -8.30793,23.42591 -21.86624,45.64733 -27.50266,69.87624 -1.37436,5.91437 -4.97241,11.2574 -5.51289,17.31077 -0.60224,6.45487 2.34723,12.66264 5.4048,18.36085 4.63267,8.70943 9.79039,17.17179 13.89804,26.1283 2.42442,5.21949 4.52457,10.60884 7.22696,15.70479 2.94947,5.55921 6.56297,10.71692 9.65141,16.19893 7.52038,14.06789 11.84422,29.61825 15.84377,44.95241 z m 102.16599,-442.49797 -0.74124,-0.37061 a 25.587825,25.587825 0 0 1 -7.48949,-4.95697 c -6.6556,-7.10343 -9.51243,-17.80492 -11.59713,-27.36368 -0.24708,-1.14273 -0.46327,-2.27 -0.66403,-3.41274 8.07631,11.47359 15.70479,23.33325 20.49189,36.13489 z"
     id="path103"
     style="fill:url(#b5f20e7f-16f1-44c3-85ac-2c33fb8e67f8);stroke-width:1.54422593"
     inkscape:connector-curvature="0" />
  <path
     d="m 830.11118,105.64035 c -0.75667,-3.56716 -1.31259,-7.273306 -3.27376,-10.330875 a 23.410467,23.410467 0 0 0 -4.81799,-5.065056 32.027249,32.027249 0 0 0 -10.31543,-6.439423 12.878844,12.878844 0 0 0 -11.67434,1.343475 c -3.25833,2.470763 -4.63268,6.701944 -5.14227,10.809585 a 26.359938,26.359938 0 0 0 2.74871,16.291584 c 3.16567,5.49745 8.63223,9.17271 13.21858,13.5583 a 53.105934,53.105934 0 0 1 8.61678,10.80958 31.208809,31.208809 0 0 0 3.92234,5.74452 7.474054,7.474054 0 0 0 6.1769,2.48621 10.809582,10.809582 0 0 0 5.04962,-2.98035 c 1.88395,-1.65233 6.94902,-4.63269 7.10344,-7.21155 0.12352,-2.11559 -3.82968,-6.90268 -4.80255,-8.89474 a 101.00783,101.00783 0 0 1 -6.81003,-20.12126 z"
     id="path105"
     inkscape:connector-curvature="0"
     style="fill:#fbbebe;stroke-width:1.54422593" />
  <rect
     x="778.59088"
     y="86.574699"
     width="68.903816"
     height="33.926533"
     rx="16.955305"
     id="rect37"
     style="fill:#429442;stroke-width:1.59204745" />
  <rect
     x="865.70557"
     y="278.90253"
     width="66.834099"
     height="32.907455"
     rx="16.446007"
     id="rect45"
     style="fill:#429442;stroke-width:1.54422593" />
  <line
     x1="167.88791"
     y1="168.73245"
     x2="954.47662"
     y2="168.73245"
     stroke-miterlimit="10"
     id="line83"
     style="opacity:0.7;fill:none;stroke:#3f3d56;stroke-width:3.6;stroke-linecap:round;stroke-miterlimit:10;stroke-dasharray:none" />
  <path
     d="m 830.11118,105.64035 c -0.75667,-3.56716 -1.31259,-7.273306 -3.27376,-10.330875 a 23.410467,23.410467 0 0 0 -4.81799,-5.065056 32.027249,32.027249 0 0 0 -10.31543,-6.439423 12.878844,12.878844 0 0 0 -11.67434,1.343475 c -3.25833,2.470763 -4.63268,6.701944 -5.14227,10.809585 a 26.359938,26.359938 0 0 0 2.74871,16.291584 c 3.16567,5.49745 8.63223,9.17271 13.21858,13.5583 a 53.105934,53.105934 0 0 1 8.61678,10.80958 31.208809,31.208809 0 0 0 3.92234,5.74452 7.474054,7.474054 0 0 0 6.1769,2.48621 10.809582,10.809582 0 0 0 5.04962,-2.98035 c 1.88395,-1.65233 6.94902,-4.63269 7.10344,-7.21155 0.12352,-2.11559 -3.82968,-6.90268 -4.80255,-8.89474 a 101.00783,101.00783 0 0 1 -6.81003,-20.12126 z"
     id="path107"
     inkscape:connector-curvature="0"
     style="opacity:0.1;stroke-width:1.54422593" />
  <circle
     cx="898.61304"
     cy="295.36398"
     id="circle47"
     r="10.284545"
     style="fill:#ffffff;stroke-width:1.54422593" />
  <path
     d="m 959.2548,604.8423 a 21.140455,21.140455 0 0 1 7.21153,2.25456 16.986486,16.986486 0 0 1 6.26956,8.46238 c 3.36642,8.30792 4.06132,17.44974 4.21573,26.4217 0.12353,7.24242 -0.12351,14.65471 -2.71782,21.41841 a 13.635515,13.635515 0 0 1 -3.56717,5.60554 12.863403,12.863403 0 0 1 -4.91063,2.37811 c -3.87601,1.06551 -8.35427,1.05008 -11.51993,-1.42068 -3.52085,-2.74874 -4.40104,-7.61304 -5.14227,-12.01408 -1.00375,-5.92984 -2.42444,-12.24572 -6.84093,-16.33792 -3.27375,-3.08845 -7.9682,-4.63268 -10.34632,-8.3697 -2.84137,-4.4937 -1.34347,-10.36176 0.46328,-15.36505 1.54422,-4.33928 3.87601,-13.12592 8.41603,-15.3496 4.54002,-2.2237 13.75904,1.46701 18.46894,2.31633 z"
     id="path113"
     inkscape:connector-curvature="0"
     style="fill:#fbbebe;stroke-width:1.54422593" />
  <path
     d="m 791.99967,626.15262 a 34.204607,34.204607 0 0 0 7.07256,13.14136 c 2.0075,2.31634 4.52459,5.12683 3.47452,7.9991 a 7.4431695,7.4431695 0 0 1 -1.8994,2.54796 c -14.91723,14.5775 -35.77972,21.61917 -56.47236,24.27524 a 1.9920517,1.9920517 0 0 1 -1.00374,0 c -0.60224,-0.26252 -0.75666,-1.03463 -0.81844,-1.69865 a 20.862494,20.862494 0 0 1 0,-6.50119 c 1.00374,-5.04961 5.43568,-8.61678 9.77496,-11.41183 4.33928,-2.79505 9.08005,-5.48201 11.48903,-10.03748 3.01125,-5.65186 1.74498,-13.01782 5.32759,-18.31451 2.90314,-4.30838 8.30793,-6.17691 13.4502,-6.94902 1.77586,-0.27796 5.55922,-2.22368 7.07256,-1.32803 1.51333,0.89565 2.00749,6.50118 2.53252,8.27705 z"
     id="path115"
     inkscape:connector-curvature="0"
     style="fill:#fbbebe;stroke-width:1.54422593" />
  <circle
     cx="839.55646"
     cy="537.67303"
     id="circle121-5-9-3"
     r="13.096733"
     style="fill:#ffffff;stroke-width:1.96647644" />
  <line
     x1="167.88791"
     y1="462.60947"
     x2="954.47662"
     y2="462.60947"
     stroke-miterlimit="10"
     id="line83-1"
     style="opacity:0.7;fill:none;stroke:#3f3d56;stroke-width:3.6;stroke-linecap:round;stroke-miterlimit:10;stroke-dasharray:none" />
  <path
     d="m 711.40651,536.85004 c 4.6327,8.64765 9.7904,16.98647 13.97526,25.94299 2.42444,5.20404 4.52458,10.54707 7.22697,15.61212 2.94947,5.51288 6.57841,10.63971 9.66687,16.07539 7.72112,13.74361 12.09128,29.24764 16.09082,44.52004 a 88.623132,88.623132 0 0 0 31.68753,-11.1493 19.920517,19.920517 0 0 0 1.89939,-1.21995 22.422162,22.422162 0 0 0 6.3931,-7.05711 c -3.6907,-13.89804 -7.47406,-28.15125 -14.99443,-40.48961 -2.45533,-4.01499 -5.26581,-7.72113 -7.72114,-11.75156 -7.30418,-11.50449 -8.81753,-26.00476 -17.17179,-36.76803 a 6.3004422,6.3004422 0 0 1 0,-7.47404 c 0.95743,-1.25083 2.50165,-2.43989 2.20824,-3.99954 -0.21619,-1.12729 -1.38981,-2.14648 -0.94198,-3.19655 0.2162,-0.5096 0.74124,-0.78756 1.14274,-1.15818 1.42068,-1.29715 1.23538,-3.53627 1.37436,-5.45112 0.30884,-4.87975 3.22742,-9.15726 6.05336,-13.14135 a 8.246167,8.246167 0 0 1 2.22368,-2.39356 c 0.75668,-0.46328 1.65232,-0.67945 2.40899,-1.14272 2.65608,-1.65233 2.47076,-5.54379 3.75248,-8.43148 1.66775,-3.7988 5.86806,-5.72908 8.63223,-8.80209 3.50538,-3.92233 4.38559,-9.37345 8.09173,-12.80164 a 10.979447,10.979447 0 0 1 1.21994,-0.98831 61.305773,61.305773 0 0 0 -2.17735,17.92848 c -0.35517,20.75439 4.83341,42.21913 2.40899,62.83456 -1.91484,16.33791 8.15351,32.64494 22.42216,40.82934 a 108.5282,108.5282 0 0 0 17.46519,7.35051 c 8.92563,3.16566 17.85127,6.42397 26.60702,10.08379 6.1769,2.56341 12.35382,5.34303 18.31452,8.2925 a 225.457,225.457 0 0 1 21.61917,11.98318 c 8.60133,5.46656 17.21812,11.02578 23.31781,19.19474 5.91439,-0.15443 11.33462,-3.70614 15.07165,-8.2925 3.73701,-4.58634 6.06881,-10.13013 8.24615,-15.61212 1.89941,-4.74078 3.78336,-9.60509 3.92234,-14.71648 a 2.9340295,2.9340295 0 0 0 -1.63688,-2.64062 l -40.86022,-21.61916 -7.72112,-4.04588 c -16.72398,-8.8793 -33.97299,-17.09457 -50.7896,-25.95844 -1.12729,0.32429 -2.05382,-0.95741 -2.37811,-2.06926 -0.32428,-1.11183 -0.55591,-2.50165 -1.62143,-2.99579 -0.54049,-0.24708 -1.21994,-0.24708 -1.54422,-0.67946 a 1.8530713,1.8530713 0 0 1 -0.27798,-1.35892 c 0.54049,-8.09175 6.37767,-15.53491 5.20405,-23.54945 -0.49415,-3.42819 -2.27001,-6.79459 -1.54422,-10.14556 0.54048,-2.33179 2.20824,-4.21574 3.08845,-6.424 1.99205,-4.94152 0,-10.80957 2.1928,-15.70476 a 36.042235,36.042235 0 0 0 2.94947,-10.00658 67.760638,67.760638 0 0 1 6.25411,-19.82787 35.795159,35.795159 0 0 1 5.74453,-8.70945 c 1.23538,-1.31259 2.60975,-2.50163 3.76791,-3.86056 3.56715,-4.21574 4.86431,-9.83672 5.88349,-15.25695 1.8222,-9.83672 3.08847,-20.07494 0.80301,-29.78813 -0.77211,-3.32008 -1.94572,-6.60927 -1.8994,-10.02201 0,-4.49371 2.02293,-9.75951 -1.0964,-13.01784 a 10.191892,10.191892 0 0 0 -4.63269,-2.34721 139.64436,139.64436 0 0 0 -22.15964,-4.09221 L 815.5028,362.9084 a 31.316904,31.316904 0 0 1 -11.35007,-2.94947 c -4.63267,-2.54797 -7.72112,-7.28874 -9.5742,-12.23026 -5.99158,4.37015 -8.24615,12.50823 -13.01782,18.16009 -2.33179,2.76416 -5.20404,4.98785 -7.72113,7.52038 a 85.102297,85.102297 0 0 0 -8.55502,10.54707 c -7.11888,9.77494 -14.28407,19.62711 -19.38003,30.57568 -2.64063,5.69819 -4.63268,11.64346 -6.82547,17.5424 -8.32338,23.27149 -21.89713,45.35392 -27.53356,69.39751 -1.3898,5.88351 -4.98784,11.18022 -5.52833,17.20269 -0.63313,6.37764 2.31634,12.55456 5.38934,18.17555 z"
     id="path135"
     inkscape:connector-curvature="0"
     style="fill:#434175;stroke-width:1.54422593" />
  <path
     d="m 961.29318,604.31727 a 2.0538206,2.0538206 0 0 1 1.7913,-2.03838 6.7173833,6.7173833 0 0 1 2.94947,0.37061 40.921989,40.921989 0 0 0 7.088,1.31259 52.611781,52.611781 0 0 1 8.55501,1.00375 9.6822971,9.6822971 0 0 1 6.62473,5.04961 12.539116,12.539116 0 0 1 0.72579,4.78711 72.671277,72.671277 0 0 1 -2.20825,18.5307 c -0.12352,0.46328 -0.30884,1.00376 -0.75666,1.17363 -0.44784,0.16986 -0.77213,0 -1.12728,0.16986 a 1.3898035,1.3898035 0 0 0 -0.66404,0.83387 40.798451,40.798451 0 0 0 -2.57884,12.35382 c -0.67946,6.17689 -1.54424,12.44646 -2.57886,18.62335 -0.60225,3.61351 -1.35892,7.41229 -3.73703,10.19191 -2.60974,3.08844 -6.73283,4.37016 -10.71694,4.91062 -8.40057,1.11185 -16.87838,-0.57135 -25.17086,-2.30089 a 7.3659583,7.3659583 0 0 1 -4.24664,-1.89939 4.7716584,4.7716584 0 0 1 -1.03462,-3.36641 c 0.18531,-4.15398 4.01499,-7.088 7.45862,-9.40434 l 4.77165,-3.19655 a 2.4707617,2.4707617 0 0 0 0.83389,-0.75667 2.5788574,2.5788574 0 0 0 0.23162,-1.54422 l -0.30885,-6.17691 a 17.49608,17.49608 0 0 1 15.24151,9.48155 c 0.64858,1.31259 1.28172,2.84138 2.64064,3.35097 a 3.4899508,3.4899508 0 0 0 4.15396,-2.51709 10.701486,10.701486 0 0 0 -0.13898,-5.35847 c -2.79505,-14.93266 -2.13103,-30.28227 -3.82968,-45.36935 a 10.238219,10.238219 0 0 0 -1.54422,-4.78711 c -0.72579,-1.03463 -2.25457,-2.03837 -2.42444,-3.42817 z"
     id="path117"
     inkscape:connector-curvature="0"
     style="fill:#f86d70;stroke-width:1.54422593" />
  <path
     d="m 753.56389,662.2103 c -0.6949,1.15817 -1.79129,2.05381 -2.43987,3.24287 a 2.7796069,2.7796069 0 0 0 0.52503,3.62894 3.5826044,3.5826044 0 0 0 2.20824,0.21618 74.292715,74.292715 0 0 0 40.14988,-18.19098 28.120356,28.120356 0 0 0 4.92608,-5.38934 c 1.3126,-1.99205 2.42443,-4.43193 4.63268,-5.26582 a 80.176215,80.176215 0 0 1 2.06927,17.68139 c 0,3.92234 -0.55593,8.38515 -3.75248,10.65517 a 13.326671,13.326671 0 0 1 -4.16941,1.69864 l -6.97989,1.97661 a 7.4277272,7.4277272 0 0 1 -3.87601,0.37061 c -0.81845,-0.21619 -1.54422,-0.74123 -2.39356,-0.89565 a 5.8680589,5.8680589 0 0 0 -2.71783,0.35517 l -6.03792,1.76042 a 38.389459,38.389459 0 0 0 -5.96072,2.08471 c -1.72953,0.81843 -3.32008,1.8685 -5.0033,2.77961 a 59.885085,59.885085 0 0 1 -8.74031,3.55171 l -10.60884,3.6907 a 38.466671,38.466671 0 0 1 -9.03372,2.31634 c -2.13102,0.18531 -4.30838,0 -6.42397,0.35518 -1.54424,0.27795 -3.08846,0.86476 -4.78711,0.9883 a 12.523674,12.523674 0 0 1 -7.52038,-2.22369 6.9953439,6.9953439 0 0 1 -2.1928,-1.94573 c -1.54422,-2.36266 -0.20075,-5.482 1.28171,-7.87554 a 31.131598,31.131598 0 0 1 10.80957,-11.08755 c 1.85308,-1.01919 3.84513,-1.76041 5.74453,-2.68695 5.42024,-2.62518 9.51244,-7.01079 14.62383,-10.00659 4.83342,-2.82593 7.93732,4.47826 5.6673,8.21529 z"
     id="path123"
     inkscape:connector-curvature="0"
     style="fill:#f86d70;stroke-width:1.54422593" />
  <path
     d="m 936.92529,207.29676 a 90.924028,90.924028 0 0 0 -24.98557,-3.08846 c -14.06791,0.20074 -28.55275,3.61349 -41.95664,-0.71035 a 73.196313,73.196313 0 0 1 -10.03745,-4.2775 25.603268,25.603268 0 0 1 -7.50495,-4.92609 c -6.67105,-7.05711 -9.54331,-17.69682 -11.61257,-27.17837 a 181.3539,181.3539 0 0 1 -3.16567,-28.92334 c -3.4745,1.62142 -7.14976,3.21198 -10.964,2.88769 -3.81425,-0.32429 -7.72113,-3.25832 -7.72113,-7.088 0.57135,8.9874 0.98831,18.08289 -0.50959,26.94675 -0.5868,3.52083 -1.54424,6.99534 -1.80675,10.54707 -1.14272,12.86339 5.60554,25.71135 3.19655,38.38946 a 9.2653563,9.2653563 0 0 0 4.37016,9.91392 c 3.45906,1.86851 7.52038,2.10015 11.31917,3.08845 7.45862,1.8994 13.89804,6.64017 21.46474,8.41603 3.4745,0.81844 7.10345,0.97287 10.56251,1.8994 4.92608,1.31259 9.41978,4.13852 14.45397,5.01873 3.7679,0.67946 7.72112,0.2162 11.47359,0.54048 3.32008,0.27796 6.56296,1.14273 9.89849,1.23538 8.15351,0.20076 15.84375,-4.40104 21.24855,-10.51617 5.40478,-6.11514 8.84841,-14.80913 12.27659,-22.17508 z"
     id="path109"
     inkscape:connector-curvature="0"
     style="fill:#f86d70;stroke-width:1.54422593" />
  <circle
     cx="813.28613"
     cy="104.36758"
     id="circle121-5"
     r="13.096733"
     style="fill:#ffffff;stroke-width:1.96647644" />
  <path
     d="m 902.70524,234.64499 a 44.118538,44.118538 0 0 0 18.77779,7.30419 76.439188,76.439188 0 0 0 10.62428,0.57137 270.00793,270.00793 0 0 0 44.21119,-3.69071 c -5.8063,-6.40853 -11.68979,-13.2649 -13.89803,-21.61916 a 35.687063,35.687063 0 0 1 -0.67946,-13.54286 101.91892,101.91892 0 0 1 4.13852,-16.98649 119.87827,119.87827 0 0 1 -18.68514,-0.4787 c -3.53628,-0.37062 -12.21482,-3.5826 -15.28784,-1.14273 -3.073,2.43988 -0.71033,10.29998 -0.66401,13.99068 a 3.4899508,3.4899508 0 0 1 0,0.4015 44.67446,44.67446 0 0 1 -3.56717,16.33791 c -4.41647,9.9757 -13.99067,18.19099 -24.97013,18.855 z"
     id="path125"
     inkscape:connector-curvature="0"
     style="fill:#fbbebe;stroke-width:1.54422593" />
  <path
     d="m 842.23336,105.64035 c -0.75668,-3.56716 -1.31259,-7.273306 -3.27377,-10.330875 a 23.410467,23.410467 0 0 0 -4.81799,-5.065056 32.027249,32.027249 0 0 0 -10.31542,-6.439423 12.878844,12.878844 0 0 0 -11.67435,1.343475 c -3.25832,2.470763 -4.63267,6.701944 -5.14228,10.809585 a 26.359938,26.359938 0 0 0 2.74872,16.291584 c 3.08846,5.49745 8.63223,9.17271 13.21859,13.5583 a 53.105934,53.105934 0 0 1 8.61677,10.80958 31.208809,31.208809 0 0 0 3.92233,5.74452 7.474054,7.474054 0 0 0 6.17692,2.48621 10.809582,10.809582 0 0 0 5.04962,-2.98035 c 1.88396,-1.65233 6.94901,-4.63269 7.10343,-7.21155 0.12352,-2.11559 -3.82967,-6.90268 -4.80254,-8.89474 a 101.00783,101.00783 0 0 1 -6.81003,-20.12126 z"
     id="path133"
     inkscape:connector-curvature="0"
     style="fill:#fbbebe;stroke-width:1.54422593" />
  <path
     d="m 931.25797,198.97338 a 37.154078,37.154078 0 0 0 30.49848,4.63267 101.91892,101.91892 0 0 1 4.13852,-16.98649 119.87827,119.87827 0 0 1 -18.68513,-0.47871 c -3.53628,-0.37061 -12.21484,-3.5826 -15.28783,-1.14272 -3.07303,2.43987 -0.71036,10.28455 -0.66404,13.97525 z"
     id="path127"
     inkscape:connector-curvature="0"
     style="opacity:0.1;stroke-width:1.54422593" />
  <circle
     cx="951.64178"
     cy="166.08138"
     id="circle129"
     r="37.231289"
     style="fill:#fbbebe;stroke-width:1.54422593" />
  <path
     d="m 936.92529,207.29676 a 90.924028,90.924028 0 0 0 -24.98557,-3.08846 c -14.06791,0.20074 -28.55275,3.61349 -41.95664,-0.71035 a 73.196313,73.196313 0 0 1 -10.03745,-4.2775 25.603268,25.603268 0 0 1 -7.50495,-4.92609 c -6.67105,-7.05711 -9.54331,-17.69682 -11.61257,-27.17837 a 181.3539,181.3539 0 0 1 -3.16567,-28.92334 c -3.4745,1.62142 -7.14976,3.21198 -10.964,2.88769 -3.81425,-0.32429 -7.72113,-3.25832 -7.72113,-7.088 0.57135,8.9874 0.98831,18.08289 -0.50959,26.94675 -0.5868,3.52083 -1.54424,6.99534 -1.80675,10.54707 -1.14272,12.86339 5.60554,25.71135 3.19655,38.38946 a 9.2653563,9.2653563 0 0 0 4.37016,9.91392 c 3.45906,1.86851 7.52038,2.10015 11.31917,3.08845 7.45862,1.8994 13.89804,6.64017 21.46474,8.41603 3.4745,0.81844 7.10345,0.97287 10.56251,1.8994 4.92608,1.31259 9.41978,4.13852 14.45397,5.01873 3.7679,0.67946 7.72112,0.2162 11.47359,0.54048 3.32008,0.27796 6.56296,1.14273 9.89849,1.23538 8.15351,0.20076 15.84375,-4.40104 21.24855,-10.51617 5.40478,-6.11514 8.84841,-14.80913 12.27659,-22.17508 z"
     id="path111"
     inkscape:connector-curvature="0"
     style="opacity:0.1;stroke-width:1.54422593" />
  <rect
     x="713.10779"
     y="221.6525"
     width="219.43192"
     height="57.250027"
     rx="28.625013"
     id="rect33-7"
     style="fill:#3f3d56;stroke-width:1.59204745" />
  <path
     d="m 890.10436,343.66736 a 10.577948,10.577948 0 0 1 1.25083,5.03417 c -0.75668,-3.76792 -5.94528,-5.85262 -6.26956,-9.5742 -0.15443,-1.71409 0.15442,-1.63688 1.21993,-0.72579 1.62145,1.34348 2.31634,3.78335 3.7988,5.26582 z"
     id="path137"
     inkscape:connector-curvature="0"
     style="opacity:0.1;stroke-width:1.54422593" />
  <rect
     x="727.40442"
     y="231.22072"
     width="190.82283"
     height="38.097698"
     rx="19.056808"
     id="rect35-9"
     style="opacity:0.1;stroke-width:1.59204745" />
  <path
     d="m 793.68289,354.46149 a 17.341658,17.341658 0 0 0 8.40058,14.93267 33.494262,33.494262 0 0 0 9.11094,3.21199 c 16.98649,4.10764 34.46713,7.41229 51.9632,6.40853 a 28.552739,28.552739 0 0 0 11.02578,-2.31634 11.828771,11.828771 0 0 0 6.81004,-8.50868 7.9990909,7.9990909 0 0 1 0.52504,-2.70239 7.890995,7.890995 0 0 1 2.57885,-2.3009 10.562506,10.562506 0 0 0 3.99954,-10.53162 c 2.11559,0.95742 4.33929,-1.18906 5.34303,-3.2892 1.00375,-2.10016 1.77586,-4.63268 3.90689,-5.54378 1.45157,-0.61769 3.08844,-0.24708 4.63268,-0.64857 2.45532,-0.63313 3.95321,-3.08845 5.68275,-4.86432 3.52083,-3.7679 8.53958,-5.71363 13.14136,-8.04542 13.71273,-6.90269 24.87749,-17.85124 35.82605,-28.61449 a 120.07901,120.07901 0 0 0 15.44225,-17.26446 63.622112,63.622112 0 0 0 3.39731,-5.55922 157.2331,157.2331 0 0 0 8.57045,-19.6271 c 1.3898,-3.61349 2.79505,-7.41229 2.22368,-11.24197 0,-0.33972 -0.12352,-0.67946 -0.20074,-1.03463 a 21.619164,21.619164 0 0 0 -3.38186,-6.82548 c -3.78335,-5.55922 -8.74031,-10.80958 -15.25696,-12.53912 -6.51663,-1.72953 -13.00238,0.35518 -19.6271,1.76043 a 49.183599,49.183599 0 0 1 -6.65562,1.01919 c -7.01079,0.49414 -13.89804,-1.3898 -20.7235,-3.25833 l -7.38141,-2.03838 c -3.69071,-1.01919 -5.54378,-5.48199 -9.26536,-6.26955 a 12.539116,12.539116 0 0 0 -5.01874,0.26251 c -7.58214,1.43615 -15.24151,3.30465 -21.928,7.16521 a 32.922898,32.922898 0 0 0 -4.26207,2.90315 26.977629,26.977629 0 0 0 -9.91393,14.62382 c -1.54423,6.43942 -0.0927,13.32667 -1.63688,19.7661 -1.26626,5.31213 -4.46281,9.9448 -7.58215,14.42306 l -18.19098,26.0511 a 160.80025,160.80025 0 0 1 -13.373,17.41887 c -9.79039,10.63972 -27.91961,18.63881 -28.18212,33.07732 z"
     id="path131"
     inkscape:connector-curvature="0"
     style="fill:#f86d70;stroke-width:1.54422593" />
  <path
     d="m 874.33781,355.09463 a 7.952764,7.952764 0 0 1 2.36267,3.48994 8.8792997,8.8792997 0 0 1 0.46327,6.06881 c -0.75667,-0.35518 -1.01919,-1.28171 -1.25083,-2.10014 a 14.484841,14.484841 0 0 0 -1.54422,-3.59804 c -0.61769,-0.97287 -3.44363,-3.28921 -3.41275,-4.35472 -0.0464,-1.606 2.62519,-0.0772 3.38186,0.49415 z"
     id="path139"
     inkscape:connector-curvature="0"
     style="opacity:0.1;stroke-width:1.54422593" />
  <path
     d="m 872.51562,229.10122 a 38.960822,38.960822 0 0 0 7.84468,5.21948 c 7.3814,3.73703 15.55035,5.6982 22.97807,9.26536 a 111.44679,111.44679 0 0 1 10.65516,6.17691 c 7.36596,4.63268 14.71647,9.26535 22.06699,13.97525 a 24.321559,24.321559 0 0 1 4.86432,3.69069 c 2.65607,2.84138 2.64063,7.72113 5.06505,10.80958 a 14.515724,14.515724 0 0 0 10.70149,4.94152 34.745086,34.745086 0 0 0 11.93688,-2.00748 59.051204,59.051204 0 0 0 6.82547,-2.48621 31.610307,31.610307 0 0 0 6.54752,-3.73703 18.824115,18.824115 0 0 0 7.72113,-12.18394 24.059042,24.059042 0 0 0 -1.31259,-9.94482 38.775516,38.775516 0 0 0 -2.34722,-6.03792 23.425908,23.425908 0 0 0 -1.88396,-3.16566 c -5.06506,-7.18065 -13.9907,-10.5625 -22.62291,-12.24572 -4.55546,-0.8802 -9.18815,-1.42068 -13.75905,-2.19279 a 49.183599,49.183599 0 0 1 -6.65562,1.01918 c -7.01079,0.49416 -13.89804,-1.3898 -20.7235,-3.25831 l -7.38141,-2.03838 c -3.69071,-1.0192 -5.54378,-5.48201 -9.26536,-6.26956 a 12.539116,12.539116 0 0 0 -5.01874,0.26251 c -7.58214,1.43614 -15.24151,3.30465 -21.928,7.16521 a 32.922898,32.922898 0 0 0 -4.3084,3.04213 z"
     id="path141"
     inkscape:connector-curvature="0"
     style="opacity:0.1;stroke-width:1.54422593" />
  <path
     d="m 854.5254,130.2862 c 0.94197,9.00284 8.53955,15.61212 13.17225,23.37959 2.25456,3.78335 3.82967,7.92186 5.85262,11.82876 a 115.81695,115.81695 0 0 0 7.72112,12.3538 l 8.26161,11.99864 c 4.8643,7.05712 9.77494,14.17601 15.98273,20.07495 10.80959,1.83762 19.92052,9.88303 30.18963,13.78994 8.23072,3.08845 17.18723,3.5517 25.81945,5.23493 8.63223,1.6832 17.55786,5.0496 22.62292,12.2457 a 32.166228,32.166228 0 0 1 4.23117,9.26536 23.997272,23.997272 0 0 1 1.31259,9.92937 18.824115,18.824115 0 0 1 -7.72112,12.19939 42.790504,42.790504 0 0 1 -13.35756,6.1769 35.115701,35.115701 0 0 1 -11.93687,2.0075 14.577493,14.577493 0 0 1 -10.71692,-4.94153 c -2.40901,-3.08845 -2.39355,-8.01453 -5.04962,-10.80958 a 24.321559,24.321559 0 0 0 -4.86431,-3.69069 L 913.9781,247.43119 a 111.44679,111.44679 0 0 0 -10.65516,-6.17691 c -7.42773,-3.62894 -15.59669,-5.5901 -22.9781,-9.26536 -7.38139,-3.67525 -14.25319,-9.89849 -15.70476,-18.03655 -4.4937,-25.00102 -21.80449,-46.07972 -36.59816,-66.72601 0.47871,-0.0927 0.33972,-1.20449 0.50959,-1.66777 a 21.619164,21.619164 0 0 1 10.80958,-10.93311 c 4.75623,-2.57886 10.03748,-3.24289 15.16431,-4.33928 z"
     id="path143"
     inkscape:connector-curvature="0"
     style="fill:#f86d70;stroke-width:1.54422593" />
  <path
     d="m 932.52424,130.4715 a 13.697284,13.697284 0 0 1 1.54423,-7.84466 c 2.45532,-4.07676 7.58216,-5.51289 12.24571,-6.47031 4.66356,-0.95741 8.95651,-1.69865 13.46565,-2.34723 a 31.038943,31.038943 0 0 1 11.13387,-0.20075 c 5.03419,1.11184 9.26537,4.49369 13.89804,6.57841 5.55921,2.4862 11.73613,3.08846 17.66596,4.50914 5.9298,1.42069 12.0295,3.6907 15.7511,8.52413 2.8259,3.6598 3.9532,8.33882 4.8025,12.89428 7.0572,38.0343 -0.5404,77.04144 -1.9766,115.69343 -0.5713,15.04075 0.1082,31.11615 8.7095,43.48539 l -25.0319,-0.66401 c -6.40858,-0.16986 -13.29584,-0.50959 -18.33001,-4.46282 -4.44737,-3.4745 -6.54751,-9.08005 -8.43148,-14.37674 a 44.782554,44.782554 0 0 1 -3.21198,-12.89428 c -0.38606,-9.08006 4.77165,-17.99025 3.08845,-26.93131 -1.25081,-6.67105 -6.1769,-12.07586 -11.30374,-16.44601 -5.12683,-4.37016 -10.964,-8.1844 -15.17974,-13.51197 -7.48949,-9.497 -8.92561,-22.45305 -7.99909,-34.51345 0.55592,-7.16521 1.85307,-14.34587 1.21994,-21.51108 a 27.070283,27.070283 0 0 0 -5.66731,-15.07164 c -3.93777,-4.75622 -6.02248,-7.72113 -6.3931,-14.43852 z"
     id="path145"
     inkscape:connector-curvature="0"
     style="fill:#434175;stroke-width:1.54422593" />
  <path
     d="m 934.06847,122.62684 c 2.409,-4.01499 7.41228,-5.46656 11.99863,-6.40854 a 11.844213,11.844213 0 0 0 -5.94526,4.63268 13.898035,13.898035 0 0 0 -1.54422,7.8601 c 0.33972,6.7174 2.42442,9.6823 6.40854,14.43852 a 26.931301,26.931301 0 0 1 5.68274,15.07165 c 0.6177,7.16521 -0.66401,14.33042 -1.21994,21.51106 -0.94197,12.04496 0.49415,25.01648 7.99909,34.51346 4.20031,5.32757 9.99115,9.12637 15.17975,13.51197 5.1886,4.38562 10.05291,9.77496 11.30373,16.44601 1.66777,8.92563 -3.48995,17.85126 -3.08845,26.9313 a 44.025884,44.025884 0 0 0 3.19655,12.87885 c 1.8994,5.31213 3.99954,10.91767 8.43148,14.39219 5.03417,3.95321 11.93689,4.29295 18.34539,4.4628 l 17.7277,0.46328 c 0.3861,0.64857 0.803,1.29715 1.2354,1.93028 l -25.0319,-0.66401 c -6.40853,-0.16988 -13.29578,-0.5096 -18.32997,-4.46282 -4.44736,-3.4745 -6.54752,-9.08004 -8.43147,-14.37674 a 44.782554,44.782554 0 0 1 -3.212,-12.89429 c -0.38605,-9.08005 4.77168,-17.99024 3.08846,-26.9313 -1.25081,-6.67107 -6.1769,-12.07585 -11.30373,-16.44601 -5.12683,-4.37016 -10.96401,-8.18439 -15.17974,-13.51198 -7.48949,-9.49699 -8.92563,-22.45305 -7.99909,-34.51344 0.55592,-7.16521 1.85308,-14.34587 1.21994,-21.51107 a 27.070283,27.070283 0 0 0 -5.66732,-15.07166 c -3.9841,-4.7562 -6.0688,-7.72113 -6.42397,-14.43851 a 13.697284,13.697284 0 0 1 1.55966,-7.81378 z"
     id="path147"
     inkscape:connector-curvature="0"
     style="opacity:0.1;stroke-width:1.54422593" />
  <path
     d="m 746.01262,514.59773 45.98705,112.0336 a 22.422162,22.422162 0 0 0 6.3931,-7.05711 c -3.69069,-13.89804 -7.47404,-28.15125 -14.99443,-40.48961 -2.45532,-4.01499 -5.26581,-7.72113 -7.72112,-11.75156 -7.30419,-11.50449 -8.81754,-26.00476 -17.17181,-36.76803 a 6.3004422,6.3004422 0 0 1 0,-7.47404 c 0.95743,-1.25083 2.50166,-2.43989 2.20825,-3.99954 -0.21619,-1.12729 -1.38981,-2.14648 -0.94198,-3.19655 0.2162,-0.5096 0.74123,-0.78756 1.14273,-1.15818 1.42068,-1.29715 1.23538,-3.53627 1.37436,-5.45112 0.30884,-4.87975 3.22742,-9.15726 6.05336,-13.14135 a 8.246167,8.246167 0 0 1 2.22369,-2.39356 c 0.75668,-0.46328 1.65233,-0.67945 2.40898,-1.14272 2.65608,-1.65233 2.47077,-5.54379 3.75249,-8.43148 1.66775,-3.7988 5.86806,-5.72908 8.63222,-8.80209 3.50539,-3.92233 4.3856,-9.37345 8.09173,-12.80164 l 0.3243,-0.80299 -3.4745,-21.61917 z"
     id="path149"
     inkscape:connector-curvature="0"
     style="opacity:0.1;stroke-width:1.54422593" />
  <rect
     x="209.98776"
     y="188.44366"
     width="137.76744"
     height="36.438175"
     rx="18.210539"
     id="rect57-7"
     style="opacity:0.5;fill:#429442;stroke-width:1.7099098" />
  <rect
     x="209.98776"
     y="250.11899"
     width="393.99701"
     height="37.527718"
     rx="18.755053"
     id="rect61-9"
     style="opacity:0.5;fill:#429442;stroke-width:1.76103783" />
  <rect
     x="209.98776"
     y="345.33795"
     width="137.76744"
     height="36.438175"
     rx="18.210539"
     id="rect57-0"
     style="fill:#429442;stroke-width:1.7099098" />
  <rect
     x="209.98776"
     y="404.62704"
     width="393.99701"
     height="37.527718"
     rx="18.755053"
     id="rect61-6"
     style="fill:#429442;stroke-width:1.76103783" />
  <rect
     x="209.98776"
     y="496.86319"
     width="137.76744"
     height="36.438175"
     rx="18.210539"
     id="rect57-1"
     style="fill:#429442;stroke-width:1.7099098" />
  <rect
     x="209.98776"
     y="556.15234"
     width="393.99701"
     height="37.527718"
     rx="18.755053"
     id="rect61-7"
     style="fill:#429442;stroke-width:1.76103783" />
  <rect
     x="729.39081"
     y="232.46265"
     width="68.903816"
     height="33.926533"
     rx="16.955305"
     id="rect37-9"
     style="fill:#429442;stroke-width:1.59204745" />
  <circle
     cx="764.08606"
     cy="250.25552"
     id="circle121-5-9"
     r="13.096733"
     style="fill:#ffffff;stroke-width:1.96647644" />
</svg>
